<mxfile host="app.diagrams.net" modified="2024-03-29T16:51:46.596Z" agent="Mozilla/5.0 (Macintosh; Intel Mac OS X 10_15_7) AppleWebKit/537.36 (KHTML, like Gecko) Chrome/123.0.0.0 Safari/537.36" version="24.2.1" etag="58k0MXochkg3JNkJDh5L" type="device">
  <diagram name="Page-1" id="Page-1">
    <mxGraphModel dx="1477" dy="647" grid="1" gridSize="10" guides="1" tooltips="1" connect="1" arrows="1" fold="1" page="1" pageScale="1" pageWidth="850" pageHeight="1100" math="0" shadow="0">
      <root>
        <mxCell id="0" />
        <mxCell id="1" parent="0" />
        <UserObject label="" tags="Background" id="12">
          <mxCell style="vsdxID=66;fillColor=none;gradientColor=none;strokeColor=none;points=[];labelBackgroundColor=none;rounded=0;html=1;whiteSpace=wrap;" parent="1" vertex="1">
            <mxGeometry x="120" y="320" width="38" height="97.61" as="geometry" />
          </mxCell>
        </UserObject>
        <mxCell id="13" style="vsdxID=67;fillColor=#000000;gradientColor=none;fillOpacity=0;shape=stencil(vVfbUhs5EP0aP6JSq++PW0n2P1yJAdeymDJkQ/5+z6xnxkgOUPsQigfGklo6fdHpow1/erzdPuw2rT4+HQ9/7X7svz3dbvjzprX9/e3uuH/C14a/bPjT9eG4uzkevt9/O/1+2E4rp6+/D/9MOzyf7LLwZNPqz9NvqUX9v5E/T8vv9vcvlkcxGtd7vlz/9fvxtD/NC4oEi1qL1rjNtstcK+wuQo1UiGqV0/xzO823oq1RVFU2a4vxPClaqDI3Z4CgefKZF8ua8/J5RAKbnYHWP36BlYpl1ARcVhWplXq8ysDLLT0yOVoPlgoHk7unNk/qwaoXpsQwzLlqD5ZKsx6sRokcwPaJqMWsS4RZYXsrERWJiBBPd8Z/eKe9dzZFyEVrTTHN3rtaCLkIo4qge2TvnrcCw0bIsBr33tXeNZdi+k4ermqZ8muCHSsSnLUOleNRJKtHs0qZA1Yp7gGY4W5tqakFaiDaXgVWUS2GRKDgtIeL5f4e3KluhFORWJMxqmElg1oawmdOQ4FzSRVAmc72AWgWEquabYqB9UjZC/VAsyFD7wAVL2Eijm1pgJmCIpyKWnyq3qG2Ub5mxlSzEUePM7UEbILMzVBXPdDJ0gekk8E7SE2nkEZGWjDreBEzS1TCRHCAHJR7uE6o9YprXB1xGQoANANXEYJwbFwrD7fREdoxtlnG27g9fsWC43wbGQfOITvO95G8yJK0eRdU3oJlHkFtLKdfbZ/3j1fHw9P2aX+4767O3fZ4s7vCiVfXd9ubburxx273cDE8M0CPkRD2HmIUjw4hQtPjQ6Too/ChgNb4LAhBxGVN7owJN79vQSCfFh8WRXDows3nXFfJC5zIf3Q4TcqHwXQtdci2gMmoh4gO6h1E1bKS6W/HaOhhQ76Z0YE7jCZjGNkWRv4tGPs2Ox3fCyRA9PbSYKQukA+DJRVNPEWWRjlPMnwmTIDU8N8zfWAuJABEywKFYTYwbdPCklbTvGmbqGtgLisytC+KpS5f51qfuDYbK4mD43vAoG+wAtoD2jEzOlWP16CIItngsUI31bHb1sLoGqEGb6aNrHqPGbJsYc6ffJGOX+JFBgTxUchCklEYvH7gEsQpAxlQMkjA2qzb297yasv5/wMMM506DloL5MgQYCQV3Af1ZGokg5LBJESOWypkZQ6xRS1Ji9AKSoJeW+dXjUAlokeL0KkNaPuCz5XczgKf3xT4WSzw55qiTpRDxcNeICdJAqoLaclB4+ck5FB7UBCQ+EPFT68RBADaCYJFhkZ9frrwefUoLPrXDjre6NzcAl9xDu8d10mI4tqR6YVrnhV3GOvayklttVT4bY56Qr1lXnjmqEJNRfaguHJwDuaX3gUN3uH7/LC73t/dnd6Fqzv4GB+CGDo9IvnLvw==);strokeColor=none;strokeWidth=0;shadow=1;spacingTop=-3;spacingBottom=-3;spacingLeft=-3;spacingRight=-3;points=[];labelBackgroundColor=none;rounded=0;html=1;whiteSpace=wrap;" parent="12" vertex="1">
          <mxGeometry x="1" y="1" width="35" height="64" as="geometry" />
        </mxCell>
        <mxCell id="14" style="vsdxID=68;fillColor=#dcf1fa;gradientColor=#5b9bd5;shape=stencil(hZXLUhsxEEW/xktU/X4sU0D+gwomuEIwZSCBv08PM2MjJRXvZiS1dPr2bWnDl8/3N0/bDcHzy2H/Y/t7d/tyv+GrDdHu8X572L3U14avN3x5tz9svx/2r4+38//TzbRy+vq5/zXt8DbHYTOZggje5wGmhvox8nVe/+31MAfgGhFAyUmWwsyZucQv85RNNT1CmRxxnX6jZboRIgUCEJjyErtOcgMxIVRG8iWQ10DHZfUygtqAT6jw5R+0UhuSW4i424nm/VMyAgbgqgSZ7D0tWiOzShizkKOnvdCGRkmkEBkAC8yRWKEdE+QVB88AazaMUqa0QXUagaNZqEDBmAudjlx5QZpZpSQuGMWEg8DQwgU0tQpdpUrrkdMaS4/sBUQD9MPu8bOHADoLZbaQ/1koqVlqCE/Si/1VFIAmbI6KkRaOQ5JRupNHega5Z59hHW5OWMW08qYm9Qm6NI8+weSGeaYqH2FctnYSYu15pw0i2DAZkEV6WqMGziGJieA+0JZFqoxR9qqWUe1hJRoOng8vQ5+BZawTEUUqfTmWczVQ4YSJsjtDxtCcUZEigaV6oPSsHk2RLRLKnKuxVtSpUQZdrWwQZ1ArChQ41KIcUS00SFt7QEmrJa2xDM15AXUmuqOnVD+IZg7ymrTa1MM0qoOPV9UKDQ0GebUU9zPMdSpM+riaAEYdQD201r2EVVIg14wBGurCZYryA9cdScOVUhUHrdpVk1N1bxl4JF73O94o0mRUeWjPs1d8fZzeh7vdw8P8vHyeH9+TGprfIr7+Aw==);strokeColor=none;strokeWidth=0;spacingTop=-3;spacingBottom=-3;spacingLeft=-3;spacingRight=-3;points=[];labelBackgroundColor=none;rounded=0;html=1;whiteSpace=wrap;" parent="12" vertex="1">
          <mxGeometry x="1" y="25" width="27" height="39" as="geometry" />
        </mxCell>
        <mxCell id="15" style="vsdxID=69;fillColor=#f7f3e8;gradientColor=#a8dbf0;gradientDirection=east;shape=stencil(rVJJEoMgEHwNRykE17Mx/6AiKhUi1kii+X0waAXNcsptprtnaRjEiqHlvUCUDAb0WYyyMi1iB0Sp7FoB0tgIsRKxotYgGtDXrnJ5z2flHF30be4wubqUYJLNVZTcHRIS8syPTq5k58lXchWnMU5yX87hZFnwuseuANb2IcXxgi0qmuB8uwPBcbRIAj7JIQBtuJG6W2jHKQ6NCOzEoFa82VDDKET/Bn+0tDVEI5z9MJRkOGN7QwQnGz/f3/RfdkJ/Qxu8freWSrnj8Pn9NVjIXRIrHw==);strokeColor=none;strokeWidth=0;spacingTop=-3;spacingBottom=-3;spacingLeft=-3;spacingRight=-3;points=[];labelBackgroundColor=none;rounded=0;html=1;whiteSpace=wrap;" parent="12" vertex="1">
          <mxGeometry x="4" y="21" width="30" height="19" as="geometry" />
        </mxCell>
        <mxCell id="16" style="vsdxID=70;fillColor=#a8dbf0;gradientColor=#5b9bd5;shape=stencil(vZTBbsMgDIafhmMsMIHAueveA60kQctCRdK1e/uREW11Jk27NDdj/4ZP5peZPEy9O3uGfJpTfPXXcJp7Jp8YYhh7n8KcIyaPTB7amHyX4mU8lfPZLcoleovvyw230seXDuQf5SQaUOIr81zELr3kalrF2oA2pSGtHaihliW1ikwNaOmtIFZF5W5hqlKc3RziSAgGlzpf5feqdnAdKU1X78936T8IsZZgNog2pxRBtAIaiogcrNoLUtVcAerNIHljwVrKWYMRhFM2YHC3YWrFQUvKKbj4xSk4tVFjAHejVAJqtWG0YAhgkzWGIGZTfPv24YiLAzffLTUIpENEUBTRPtSTQxj/vwdy8LNB2jAMZQHd17cbJ6fKtpLHTw==);strokeColor=none;strokeWidth=0;spacingTop=-3;spacingBottom=-3;spacingLeft=-3;spacingRight=-3;points=[];labelBackgroundColor=none;rounded=0;html=1;whiteSpace=wrap;" parent="12" vertex="1">
          <mxGeometry x="26" y="35" width="10" height="28" as="geometry" />
        </mxCell>
        <mxCell id="17" style="vsdxID=71;fillColor=#5b9bd5;gradientColor=#4974ba;gradientDirection=east;shape=stencil(fVLZTsNADPyavK587eFHVMp/VDQlEaWp0hbK37PbDaQOiCgPPma8M5YbXp26zbFtCE7ncXhtP/rtuWv4sSHqD1079uccNbxueLUbxvZlHC6Hbc2Pm4Is0dvwXiZcK4+cSCERfNYCiitp/p8qft8fDD5ZvPcODf75MtYHcGaIeiBkjgiqaeLj3QBkRIlesPauVHswQac0RkdMMYWUPEmEbzTXtohLOjGmkqLDMKuDhz8E3mjMKBzCL3W3ARC8jxwjeLL6lF2WkVgpACNbtQjg4O6LVm1uW63FHS202uWrOh/N9uG/zRd4CCgelCSgNQbWSchLiApJA3pltE5yM978i2ICWWzdQbBGkNxy5zmeL3DX7/f1gH+k52B5sblUr53XXw==);strokeColor=none;strokeWidth=0;spacingTop=-3;spacingBottom=-3;spacingLeft=-3;spacingRight=-3;points=[];labelBackgroundColor=none;rounded=0;html=1;whiteSpace=wrap;" parent="12" vertex="1">
          <mxGeometry x="13" y="21" width="11" height="6" as="geometry" />
        </mxCell>
        <mxCell id="18" style="vsdxID=72;fillColor=#FFFFFF;gradientColor=#da8c36;shape=stencil(lZPBbsIwDIafpsdFju3E8XFi7D3QKKMao6iUjb39WpIyUpWi9VDF8e/6s2sXtDhuV4eyQDi2Tf1RflfrdlvQS4FY7bdlU7XdqaBlQYtN3ZTvTX3ar6N9WPXK/vRZf/VfOMc4C9DHIPxE24FButy8RvnbqYl6GwUajBMPwiGwSopNvgBGUawEJWH10XnG6BRvBJwjAXaBWTXF4hXEwM2DKZoGriSnnPtCCc8ToEgGldmjOrZMOem9bAkGDENw5LwVdRQQgHPa6UoT2wh11NJJ2PsJh2rAeCJxoGht99YceLrYazVBRQC7OPZeVcJ8bx919t6ftA/S4cwE4XyZNJ7Wmd7uqv1/Bjzfhyd0mXywk7g7/G3Sptrt4iLe+seb113FraXlLw==);strokeColor=#996633;strokeWidth=0;spacingTop=-3;spacingBottom=-3;spacingLeft=-3;spacingRight=-3;points=[];labelBackgroundColor=none;rounded=0;html=1;whiteSpace=wrap;" parent="12" vertex="1">
          <mxGeometry x="8" width="20" height="23" as="geometry" />
        </mxCell>
        <mxCell id="19" style="vsdxID=73;fillColor=none;gradientColor=none;shape=stencil(nZFLDoMwDERP4y0KtoTYU3oPJEJjNU1QSH+3b4KFCqhdtLsZ53lkTYCayXSjBlRTDP6s79xHA3QARHZGB45JAbVAzeCDPgV/db34sctkVhd/ywkP2VN5A9VTXFUWFc6To8CW3VdYrcGfUrdwqbb44j+esIepLqj+OzuJdzEDWyu9rt/3RaaRfAK1Lw==);strokeColor=#1e4182;strokeWidth=0;spacingTop=-3;spacingBottom=-3;spacingLeft=-3;spacingRight=-3;points=[];labelBackgroundColor=none;rounded=0;html=1;whiteSpace=wrap;movable=0;resizable=0;rotatable=0;deletable=0;editable=0;locked=1;connectable=0;" parent="12" vertex="1">
          <mxGeometry x="6" y="37" width="16" height="23" as="geometry" />
        </mxCell>
        <mxCell id="21" value="&lt;div style=&quot;font-size: 1px&quot;&gt;&lt;font style=&quot;font-size:16.93px;font-family:Times New Roman;color:#000000;direction:ltr;letter-spacing:0px;line-height:120%;opacity:1&quot;&gt;DE&lt;br&gt;&lt;/font&gt;&lt;/div&gt;" style="text;vsdxID=66;fillColor=none;gradientColor=none;strokeColor=none;points=[];labelBackgroundColor=none;rounded=0;html=1;whiteSpace=wrap;verticalAlign=middle;align=center;overflow=width;;html=1;" parent="12" vertex="1">
          <mxGeometry x="-2.1000000000000014" y="63" width="38.1" height="37.61" as="geometry" />
        </mxCell>
        <UserObject label="" tags="Background" id="22">
          <mxCell style="vsdxID=78;fillColor=none;gradientColor=none;strokeColor=none;strokeWidth=2;points=[];labelBackgroundColor=none;rounded=0;html=1;whiteSpace=wrap;" parent="1" vertex="1">
            <mxGeometry x="299" y="53" width="66" height="44" as="geometry" />
          </mxCell>
        </UserObject>
        <mxCell id="23" style="vsdxID=75;fillColor=none;gradientColor=none;shape=stencil(vZTBbsMgDIafhmMQ4KYN5657D7SSBI2FyGFr9vYjcqM1LNmpys3Gn7F+Y8zgPLSmt0yJIWJ4tzd3jS2DF6aU61qLLiaLwYXBuQ5oGwyf3ZX83kzkZH2Er+mGkfKkmFKU+J5d8l+J9a57YPXTWINvKYYzy7UiGme8JH9cZs+3VQdene5EYUY3FBiiiS50FL/T3mBji1SrqL1pFqHhZm3/53hVSV5cllzCtpiKwykTo/jxuNCTNUfsJWW17oboZ5D5M0uddQa4XjRmq9M79GZrwlalSMFLyEeW60M2tatfYJeR/e/zJeN3G9TOe1omj/F8e6Qj2jxw+QE=);strokeColor=#000000;points=[[1,0.5,0],[0.5,0.5,0],[0.5,0,0],[0.03,0.04,0],[0.97,0.04,0],[0.03,0.96,0],[0.97,0.96,0]];labelBackgroundColor=none;rounded=0;html=1;whiteSpace=wrap;" parent="22" vertex="1">
          <mxGeometry width="66" height="44" as="geometry" />
        </mxCell>
        <mxCell id="24" style="vsdxID=76;fillColor=#000000;gradientColor=none;shape=stencil(lVvZkt3GDf2aeUxX78tjynH+wxXLkSqK5BrLifT3OSAvewFAdmWeZjiNSwAN4GC7b+GnPz7+8vuHN2//+Pb+9V8f/vvp128f38Lf3rz/9OXjh/dP3/DbW/j5Lfz029f3D/98//rnl1/Pv3//hU7Sb//++h/6hO8nXXOmeKLy9sf5JHtT0vHk7yfBP/58PynceaA2U2oMJdnzx73IX//OzrRA/z4ff/cvqmBSHY9/vB6nZoKrJbbrJ77IwkT2IgmDxA8G7V/B4+dPXyahQNTaIlSKxi1CMYIILhaC2EwNDwTBlLISOJOe3lBMTQtBaMY/qnmicJ3EtVyFaptpLmXPVBuqCZFOv+7JMtXi6vsLXo9CWYQ4VMv5atZEepnVrz9A03n+fxbM1uoErzC6LkC/+2piWxn0uPuyYbBmkyZDu/iyxhW8OHJDu/jC/8Nkh00wWCcddxZBFZkOcfLZPEs2LS+24Ot1FTfGUJKJ3lUulMcnTY8vWQqcJggd+2ScnS7GhlWW4i4fGeoOxudHWXIxYXU1b014cIRcYawLgUubgHOQeCb6oOpiZ5iWlXI7CiHTxbfC5LYmM7kdnNltzAySQ2X1Lgw6WMb0X+EHOZnKg2GD4U7uHXpA5m5Q4WM79pzJtgk3AFsBRjCU4Va2EnTtFTfpysymEo/xRplEH5gy82LcihElxOs1OIImTBJK8ZIzcY55rtM5MoG4evElXaymNCsiJVFJ345Z+AMOCrtYRQEMxBVPXXmEHoIB5g8IIE+iHxRCcARQBRqAAV6CLowgthkZWCQADLA7rDIOCLZwiUHw1Uyec4X+phFWU1QuxJ6+JYL1gAHHsgK4bG47Fl8YwHUXjc1aDnIxGVbuEOFKlvYSmM7oGMeq9e5JDAYE4YKGm8v3uJo4R/GwyoIgH6UZ4GmOM7oVJhFiWWrTAaZucFWYcM3E8CycM3ZFBliIa2+3ngDnimtOFZCcuidtHCQSFoluCXJlVYcjLWs5jO92Uuz8w/wDtqYkJmWHGAQJ0kNIK1Og/j6wIAuAQHKVnACIOiLIcODGcxCFG0119cwobgIoglkUABsJaoZgXUt0duWLTu7YWt7g9DeMuN2a1FK8MuvBypRxhX6obi+Mff6FPZThZMFMOdOrlZfkjU2qbhzTDZ2se+U4BdSJdIK1+bKarLjyzOd8Wcyk6eAz2CEHYy4O+PeLiwsJ4pUdDu6bscL8KSYrV4uz3lehzjr4uJImZHA7OGhqCpGFIyp85DxZ6RQWGARQRrr1Q5SS8kozVQTS4oEpVXDiZEiYzoVxjrPCAnbkqQsqAjshmIJGaSk0rmIFCasGQgWfxvRYOLAj/DDGUfrkZzOkJIIxXs2Couy85fUXynn7WIIQiTSVQTaExI0XWd/WpKb2VPexMICi1+5MBgK7rLDTNOwHvqQ0gxnL6FHPL9nPymHIo1wbfYO05bCYqkTOytz3CtjCqiuuVIGUKMyaDj4aR0SdtcYo3Jp/zCpQJfglaY1v/NoTkwCQULNsweCkhoyodxKDI5wUjQ1WJNWR83bZ24OZZyTRcSUo15O7SptIrDQs0IkIjQjrFENvS5tvqmF5hKb2066VgyI5tinbZTU2TDfZKW1lDKLuVIo96pYx7grE5nZV9/iB6B41bQEbqmyAgp0SJZIUJI6pSYXl3t7ogRAnn5sxiNf1QqDXE0T9pwsv1OCZCkGm4BLnmq63l/DUSUHoo2RVBA6yZ4K4pQ7QBGmj6/vSR7me3DVw3VpF43JceBL9IBHgT1RK8zqjPhKWBLOx4uJqz4CGvACPjSlRT31uUTXGFqRX+nyNmjmy4XVAPWNr7vMPnyw8drLhgOUhJ8VNfXqQyO4r0c0Fl41CEidz5/S6DN5CC4OINV9BwqtSwSGSGiuTFlBmkUE3xApFwYkyx7lhwBlrhufS7cqt7kwebHU/6U5gHxtBBwnPvYhIeCyhpOKxaW4OdQPGp7JiHw5fd6UJyGRGgjdYyQyqZ8mJk2xEHgDT0klT2YD8kRtfoamGrLDpsbxbCj1eJtTUgOcQ4fZd2INM2NpBqUTVqkxx6DqUzBGnQxH8tB2ggqz4+6Y17KQWZZ5QjdKka8D0ucnCGKyi+j8IHp0AOU5mzVBrn1zgIBA9R7jf/LMKg1CkJOg01Zr7HqswoIks0lCis7t9kHklBU5cv0kvdumozAxolClZ2QEMEtQmuz00jFPuO9LoUUucqpaTJ8FN3DCDnFwLwaAMSg87wjG8jF50ukhHxWk+zaGTW5boqqSnwiy8YhajbnFZwYEfAz5KnHyEcUrdaOYhRPDoISjs19IVIOCfa3QkyUopdtCJhKOXsdD5BLzWeqZ8RGeR6vl09d265u223wciqyi+XiMKwVeT8wwcDkrRcRwWDIUdknnkRQLI6llpyHaMUmFQyqtYpmvXu2dgFSmY6A+RnXN2iE7phx6D0ulSWVUNMqdgm6uGVaPI5bfDFFdMEVzJRl7Rq54yh6OOGbLmURrZq0PYxRuAB/axwkWZHWzOzZaA16cPf3GsuD8+QbYjYchzncQnBqjoq2xLEhVfXgn7qpfIZtfk1QB9hnQNUFUFpemw0u61Y0NmcLa3Rbu43+DHK10dYkj0b/W+Dh3lito1dmh+sdw9dfQf754oFNg56JTuuT2v9O7KY9ZmMaQh1gQG2pVdUQIyK0I0CFmZdJ4aQTnwNZXoAKEiEFrRfDnOPaoXbrBmYt6xClxUAAB12cg+yLTtizGkaAq6U2c5BWVdZ8QsZjCgaNuBTn3Vc/fT06LOnS9mUV0pOTqNV5elCbYUQWRecJt3RkHoorR5EcMWK+CbJcCvJhPc48Nkh2HCbjFRb/tyi8iWUMUggT5jWRdhCgW9srBDA6F5XF0Erzwbd33t5P/ONEBq5z0eoU4KlXOhw1vVJtAl3a4qyEhbd61eZIZ57ePZzSDmoJCR2fLFhtfi5Jxb85z1LFjvRt8g4KsAtFK0y/IitXK0XaTlnplxgCgooYHIlCrkWgpd+NoFhFiXUdXYWqlNWZfo9Rrtes7dLKHDqso1Krgkdeh29ktkktWDcn4ZX+hCqjj30DivRL+Mh7Jglg+AXC9cHphN50aJUGw4MIJb12isWRm6LOOo98U6R/btyZ3KwIrLAZ+b4uN8hza3wAYLEdTmUlpJ7hibTNGRLx5Gw82gypG70sKpXg1j3s1GyVRLTfsZNFg2A/LgZzvgy6GK34NkZ7NlSukHqsVSH5TZAF8iHfBnfLuZUqIc5XNUKv545aD0LKUi/Wu6ITQxSt8m8d9WpZgeM0pusFQq72ImjfeinMzOfGq5TO9dO3X8hXxMKQGPw4xFHOQK5Bn4WnxFuxkODIIBW89jAdohE+U+gZYmg70YHmluvNYJHvfZvUROAqwlbMqBhVcGvgyyZtaY9wzAel61VxLAWBBu5pAteUsKa3UdSw7W+CyafffhjrUkOQMwBqXTTnJopamfPH0e6vBScB06KYMqggQ2/rNLkqUMbyMP8oCsotSBOZ0AyrRZXjsCK/c0FOc22JcFH9ByHRn3ZTwUCU3ZzRg3aoO2pzC2BYuyexa96TdxbXk0WQ6Kzgl4VBAdLmZlBxmcKwMnXHjkGqMuKOOGlsh2+QVeW8TO1LnHy5vr4Wzh8iFpWsrVOblgSMJMSTM/zxKMYBfnVucWdqkY8yoKPqC2h7qJZrdzls6zuhBuQLavFzADWMfrOpbTd3TudwVihvblWmRBSJCGUKUhQKTGXCeny1IfXKcqGJ7rslY+mUJWZj80x1eWCilgMsukjY8dQ3Hths0LfYp6Qj2+rHQ7Qsj5nEvcrWf1PGIe62+z8+CX2cnU+1RXxTqzlu1Ns8V4mncpPkVkHP3adiXi9mUjAjgl8ITXxhDzB+SqTbZBj6/IMU+I+6/+RK8u/gTKmGSKPU3VkmJ9tDkeJJJMMWWoUWQM+H18s/O3T58/n18M7XEHv/BvguLR+S3S8PP/AA==);strokeColor=#000000;spacingTop=-1;spacingBottom=-1;spacingLeft=-1;spacingRight=-1;points=[[0.5,0.5,0]];labelBackgroundColor=none;rounded=0;html=1;whiteSpace=wrap;" parent="22" vertex="1">
          <mxGeometry x="12" y="3" width="26" height="26" as="geometry" />
        </mxCell>
        <mxCell id="25" style="vsdxID=77;fillColor=#000000;gradientColor=none;shape=stencil(lVvZkt3GDf2aeUxX78tjynb+wxXLkSqK5JLlWPp7H5CXvQAgO5mnGU7jEkADONjuW/jh9/c///buzdvfv375/O93f3745ev7t/Djm/cfPr1/9+XDV/z2Fn56Cz/8+vnLu399+fzHp1/Ov3/7mU7Sb//5/F/6hG8nXXOmeKLy9vv5JHtT0vHkHyfBP//4clK480BtptQYSrLnj3uRv/6dnWmB/n0+/uZfVMGkOh5/fz1OzQRXS2zXT3yRhYnsRRIGiR8M2r+Dx48fPk1Cgai1RagUjVuEYgQRXCwEsZkaHgiCKWUlcCY9vaGYmhaC0Ix/VPNE4TqJa7kK1TbTXMqeqTZUEyKdft2TZarF1fcXvB6FsghxqJbz1ayJ9DKrX3+ApvP8/yyYrdUJXmF0XYB+99XEtjLocfd1w2DNJk2GdvFljSt4ceSGdvGF/4fJDptgsE467iyCKjId4uSzeZZsWl5swdfrKm6MoSQTvatcKI9Pmh5fshQ4TRA69sk4O12MDassxV0+MtQdjM+PsuRiwupq3prw4Ai5wlgXApc2Aecg8Uz0QdXFzjAtK+V2FEKmi2+FyW1NZnI7OLPbmBkkh8rqXRh0sIzpv8IPcjKVB8MGw53cO/SAzN2gwsd27DmTbRNuALYCjGAow61sJejaK27SlZlNJR7jjTKJPjBl5sW4FSNKiNdrcARNmCSU4iVn4hzzXKdzZAJx9eJLulhNaVZESqKSvh2z8AccFHaxigIYiCueuvIIPQQDzB8QQJ5EPyiE4AigCjQAA7wEXRhBbDMysEgAGGB3WGUcEGzhEoPgq5k85wr9TSOspqhciD19SwTrAQOOZQVw2dx2LL4wgOsuGpu1HORiMqzcIcKVLO0lMJ3RsfJoLCQGA4JwQcPN5XtcTZyjeFhlQZCP0gzwNMcZ3QqTCLEstekAUze4Kky4ZmJ4Fs4ZuyIDLMS1t1tPgHPFNacKSE7dkzYOEgmLRLcEubKqw5GWtRzGdzspdv5h/gFbUxKTskMMggTpIaSVKVB/G1iQBUAguUpOAEQdEWQ4cOM5iMKNprp6ZhQ3ARTBLAqAjQQ1Q7CuJTq78kUnd2wtb3D6G0bcbk1qKV6Z9WBlyrhCP1S3F8Y+/8IeynCyYKac6dXKS/LGJlU3jumGTu5S2+MdEtSJdIK1+bKarLjyzOd8Wcyk6eAz2CEHYy4O+PeLiwsJ4pUdDu6bscL8KSYrV4uz3lehzjr4uJImZHA7OGhqCpGFIyp85DxZ6RQWGATktYrU7xSlpLzSTBWBtHhgShWcOBkSpnNhnOMhgQXsyFMXVAR2QjAFjdJSaFzFChJWDYQKPo3psXBgR/hhjKP0yc9mSEkEY7yaBUXZecvrL5Tz9rEEIRJpKoNsCIkbL7K+rUlN7anuY2EARa/dhW4I7LLCTtOwH/iS0gxmLKNHPb9kPyuHIY9ybfQN0pbDYqoSOStz3ytgC6uuuFIFUqIwazr4aBwRddYao3Br/jGrQJXgl6Q1vvFrT0wCQELNsgWDkxoyot5JDI5wMjwniwitPeftsrcHM89IouNKUK4nd5U2kVhpWKATERoR1imG3pY231TD8ghN7ScuseAH2Wybsl1WY8N0k53SVsYg6k6l2KNuGeOuQGxuV3WPH4juUdMWsKHKBijYKVEiSUHimJpUWO7tjR4IcfK5GYN4XS8Eej1B1H+68EINnqkQZAouca7pensJT50UhD5KVkXgIHsmiFvqAE2QNrq+L32U68ldA9etVTQux4Un0Q8SAf5EpTSvM+ojYUkwGysurvYMaMgL8NiYEvXU5xZVY2xBeqXP16iZIxteB9QztuY+//DJwmMnGw5YHnJS3NSnB4nsvhLdXHDZKCRxMndOr8vgLbQwiFjzFSS7fAuasFYmLaDMIoNuiBWKghNljnPDgDPWDM+l25Vb3Zk82MrMd9tSEKiSiOBzEAmPJZRUPDbNzaFuwPhUVuzD4eu2646sQHKDAkEyg+pZcuIkG5EHwLR00lQ2IH/kxldoqiErbHos75ZCj5cJNTXgOUS4fRf2IBO2dlAqUbUqUxy6DiVzxOlQBD9tB6ggK/6+aQ07qUWZJ1SjNOkaMH1usjAGq6j+D4JHJ0COk1kz1NonFzgIRM8R7jf/rMIgFCkJOk215r7HKgxoIos0lOjsbh9kXkmBE9dv0otdOiozAxplSlZ2AIMEtcluDw3jlPuONHrUEqeq5eRJcBM3zCAn10IwKIPSw45wDC+jF50u0lFxmk9z6OSWJboq6akwC6+YxahbXFZw4PuAjxInH2GcUjeaeQgRPHoICvu1dAUI+OcaHUmyUooddCLh6GUsdD4Br7WeKR/RWaR6Pl19t655u+33gcgqiq/XiELw1eQ8A4eDUnQchwVD2/mxR14kgKyelYZsxygVBqW8imW6PruegVWkYKI/RHbO2SE6pR96DEqnS2VVNcicgm2uGlaNIpffDlNcMUVwJRt5Ra96yhyOOmbImkdpZK8OYRdvAB7YxwoXZXawOTdbAl6f3v3NseL++ATZjoQhz3USnxigoq+yLUlUfHkl7KteIptdk1cD9BnSNUBVFZSmw0q7144NmcHZ3hbt4n6DH690dYgh0b/V+zp0lCtq19ih+cVy99TRf7x7olBg56BTuuf2vNK7K49Zm8WQhlgTGGhXtk1glJIiRIOQlUnnqRGUA19TiQ4QKgKhFc2X49yjeuEGaybmHavARQUAUJeN7INM274YQ4qmoDt1llNQ1nVGzGIGA4q2HejUVz13Pz0t6tz5YhbVlZKj03h1WZpgSxFE5gW3eWcUhC5KmxcxbLECvlkC/GoywT0+THYYJuwWE/W2L7eIbAlVDBLoM5Z1EaZQ0CsLOzQQmsfVRfDKs3HX107+70wDpHbe4xHqpFA5Fzq8VW0CXdLtqoKMtHXX6kVmyHoBdjOIOShkZLZ8seG1ODnn1jxnPQvWu9E3CPgqAK0U7bK8SK0cbRdpuWdmHCAKSmggMqUKuZZCF752ASHWZVQ1tlZqU9Yler1Gu55zN0vosKpyjQouSR26nf0SmWT1oJxfxhe6kCrOPTTOK9Ev46EsmOUDINcLlwdm07lRIhQbDozg1jUaa1aGLss46n2xzpF9e3KnMrDicsDnpvg436HNLbDBQgS1uZRWkjvGJlN05IuH0XAzqHLkrrRwqlfDmHezUTLVUtN+Bg2WzYA8+NkO+HJoFINZItnZbJlS+oFqsdQHZTa8SaQD/oxvN1NKlKN8jkrFH68clJ6lVKR/TTeEJkbp2yT+26oU02NGyQ2WSuVdzKTxXpST2ZlPLZfpvWunjr+Qjykl4HGYsYiDXIE8A1+Lr2g3w4FBMGDreSxAO2Si3CfQ0mSwcLdVhtit9nGf3UvkJMBawqYcWHhl4Msga2aNufoArOdVeyUBjAXhZg7ZkreksFbXseRgjc+i4/+wtcLecUV9lBVKp53k0EpTP3n6PNThpeA6dFIGVQQJbPy3NnqU4W3kQR6QVZQ6MKcTQJk2y2tHYOWehuIsDYl9WfABLdeRcV/GQ5HQlN2McaM2aHsKY1uwKLtn0Zt+E9eWR5PloOicgEcF0eFiVnaQwbkycMKFR64x6oIybmiJbJdf4LVF7Eyde7y8uR7OFi4fkqalXJ2TC4YkWekZMvPzLMEIdnFudW5hl4oxr6LgA2p7qJtodjtn6TyrC+EGZPt6ATOAdbyuYzl9R+d+VyBmaF+uRRaEBGkIVRoCRGrMdXK6LPXBdaqC4bkua+WTKWRl9kNzfGWpkAIms0za+NgxFNdu2LzQp6gn1OPLSrcjhJzPucTdelbPI+ax/jY7D36ZnUy9T3VVrDNr2d40W4yneZfiU0TG0a9tVyJuXzYigFMCT3htDDF/QK7aZBv0+Ioc84S4/+pP9OriT6CMSabY01QtKdZHm+NBIskUU4YaRcaA38c3O3/98PHj+cXQHnfwC/8mKB6d3yINP/0F);strokeColor=#000000;spacingTop=-1;spacingBottom=-1;spacingLeft=-1;spacingRight=-1;points=[[0.5,0.5,0]];labelBackgroundColor=none;rounded=0;html=1;whiteSpace=wrap;" parent="22" vertex="1">
          <mxGeometry x="30" y="20" width="24" height="23" as="geometry" />
        </mxCell>
        <UserObject label="&lt;div style=&quot;&quot;&gt;&lt;font style=&quot;font-family: &amp;quot;Times New Roman&amp;quot;; color: rgb(0, 0, 0); direction: ltr; letter-spacing: 0px; line-height: 120%; opacity: 1; font-size: 18px;&quot;&gt;Component Repository&lt;/font&gt;&lt;font style=&quot;font-size: 16.93px; font-family: &amp;quot;Times New Roman&amp;quot;; color: rgb(0, 0, 0); direction: ltr; letter-spacing: 0px; line-height: 120%; opacity: 1;&quot;&gt;&lt;br&gt;&lt;/font&gt;&lt;/div&gt;" tags="Background" id="27">
          <mxCell style="verticalAlign=middle;align=center;overflow=width;vsdxID=81;fillColor=none;gradientColor=none;shape=stencil(nZBLDoAgDERP0z3SIyjew0SURgSD+Lu9kMZoXLhwN9O+tukAlrNpJg1SzDH4QW/URgNYgZTkjA4UkwJUgGXng+6DX1zLfmoymdXo17xh5zmRJ6Q42BWCfc2oJfdAr+Yv+AP9Cb7OJ3H/2JG1HNGz/84klThPVCc=);strokeColor=none;strokeWidth=2;points=[];labelBackgroundColor=none;rounded=0;html=1;whiteSpace=wrap;" parent="1" vertex="1">
            <mxGeometry x="364" y="190" width="107" height="47" as="geometry" />
          </mxCell>
        </UserObject>
        <UserObject label="" tags="Background" id="28">
          <mxCell style="vsdxID=6;fillColor=none;gradientColor=none;strokeColor=none;points=[];labelBackgroundColor=none;rounded=0;html=1;whiteSpace=wrap;" parent="1" vertex="1">
            <mxGeometry x="116" y="31" width="38" height="66" as="geometry" />
          </mxCell>
        </UserObject>
        <mxCell id="29" style="vsdxID=7;fillColor=#000000;gradientColor=none;fillOpacity=0;shape=stencil(vVfbUhs5EP0aP6JSq++PW0n2P1yJAdeymDJkQ/5+z6xnxkgOUPsQigfGklo6fdHpow1/erzdPuw2rT4+HQ9/7X7svz3dbvjzprX9/e3uuH/C14a/bPjT9eG4uzkevt9/O/1+2E4rp6+/D/9MOzyf7LLwZNPqz9NvqUX9v5E/T8vv9vcvlkcxGtd7vlz/9fvxtD/NC4oEi1qL1rjNtstcK+wuQo1UiGqV0/xzO823oq1RVFU2a4vxPClaqDI3Z4CgefKZF8ua8/J5RAKbnYHWP36BlYpl1ARcVhWplXq8ysDLLT0yOVoPlgoHk7unNk/qwaoXpsQwzLlqD5ZKsx6sRokcwPaJqMWsS4RZYXsrERWJiBBPd8Z/eKe9dzZFyEVrTTHN3rtaCLkIo4qge2TvnrcCw0bIsBr33tXeNZdi+k4ermqZ8muCHSsSnLUOleNRJKtHs0qZA1Yp7gGY4W5tqakFaiDaXgVWUS2GRKDgtIeL5f4e3KluhFORWJMxqmElg1oawmdOQ4FzSRVAmc72AWgWEquabYqB9UjZC/VAsyFD7wAVL2Eijm1pgJmCIpyKWnyq3qG2Ub5mxlSzEUePM7UEbILMzVBXPdDJ0gekk8E7SE2nkEZGWjDreBEzS1TCRHCAHJR7uE6o9YprXB1xGQoANANXEYJwbFwrD7fREdoxtlnG27g9fsWC43wbGQfOITvO95G8yJK0eRdU3oJlHkFtLKdfbZ/3j1fHw9P2aX+4767O3fZ4s7vCiVfXd9ubburxx273cDE8M0CPkRD2HmIUjw4hQtPjQ6Too/ChgNb4LAhBxGVN7owJN79vQSCfFh8WRXDows3nXFfJC5zIf3Q4TcqHwXQtdci2gMmoh4gO6h1E1bKS6W/HaOhhQ76Z0YE7jCZjGNkWRv4tGPs2Ox3fCyRA9PbSYKQukA+DJRVNPEWWRjlPMnwmTIDU8N8zfWAuJABEywKFYTYwbdPCklbTvGmbqGtgLisytC+KpS5f51qfuDYbK4mD43vAoG+wAtoD2jEzOlWP16CIItngsUI31bHb1sLoGqEGb6aNrHqPGbJsYc6ffJGOX+JFBgTxUchCklEYvH7gEsQpAxlQMkjA2qzb297yasv5/wMMM506DloL5MgQYCQV3Af1ZGokg5LBJESOWypkZQ6xRS1Ji9AKSoJeW+dXjUAlokeL0KkNaPuCz5XczgKf3xT4WSzw55qiTpRDxcNeICdJAqoLaclB4+ck5FB7UBCQ+EPFT68RBADaCYJFhkZ9frrwefUoLPrXDjre6NzcAl9xDu8d10mI4tqR6YVrnhV3GOvayklttVT4bY56Qr1lXnjmqEJNRfaguHJwDuaX3gUN3uH7/LC73t/dnd6Fqzv4GB+CGDo9IvnLvw==);strokeColor=none;strokeWidth=0;shadow=1;spacingTop=-3;spacingBottom=-3;spacingLeft=-3;spacingRight=-3;points=[];labelBackgroundColor=none;rounded=0;html=1;whiteSpace=wrap;" parent="28" vertex="1">
          <mxGeometry x="1" y="1" width="35" height="64" as="geometry" />
        </mxCell>
        <mxCell id="30" style="vsdxID=8;fillColor=#dcf1fa;gradientColor=#5b9bd5;shape=stencil(hZXLUhsxEEW/xktU/X4sU0D+gwomuEIwZSCBv08PM2MjJRXvZiS1dPr2bWnDl8/3N0/bDcHzy2H/Y/t7d/tyv+GrDdHu8X572L3U14avN3x5tz9svx/2r4+38//TzbRy+vq5/zXt8DbHYTOZggje5wGmhvox8nVe/+31MAfgGhFAyUmWwsyZucQv85RNNT1CmRxxnX6jZboRIgUCEJjyErtOcgMxIVRG8iWQ10DHZfUygtqAT6jw5R+0UhuSW4i424nm/VMyAgbgqgSZ7D0tWiOzShizkKOnvdCGRkmkEBkAC8yRWKEdE+QVB88AazaMUqa0QXUagaNZqEDBmAudjlx5QZpZpSQuGMWEg8DQwgU0tQpdpUrrkdMaS4/sBUQD9MPu8bOHADoLZbaQ/1koqVlqCE/Si/1VFIAmbI6KkRaOQ5JRupNHega5Z59hHW5OWMW08qYm9Qm6NI8+weSGeaYqH2FctnYSYu15pw0i2DAZkEV6WqMGziGJieA+0JZFqoxR9qqWUe1hJRoOng8vQ5+BZawTEUUqfTmWczVQ4YSJsjtDxtCcUZEigaV6oPSsHk2RLRLKnKuxVtSpUQZdrWwQZ1ArChQ41KIcUS00SFt7QEmrJa2xDM15AXUmuqOnVD+IZg7ymrTa1MM0qoOPV9UKDQ0GebUU9zPMdSpM+riaAEYdQD201r2EVVIg14wBGurCZYryA9cdScOVUhUHrdpVk1N1bxl4JF73O94o0mRUeWjPs1d8fZzeh7vdw8P8vHyeH9+TGprfIr7+Aw==);strokeColor=none;strokeWidth=0;spacingTop=-3;spacingBottom=-3;spacingLeft=-3;spacingRight=-3;points=[];labelBackgroundColor=none;rounded=0;html=1;whiteSpace=wrap;" parent="28" vertex="1">
          <mxGeometry x="1" y="25" width="27" height="39" as="geometry" />
        </mxCell>
        <mxCell id="31" style="vsdxID=9;fillColor=#f7f3e8;gradientColor=#a8dbf0;gradientDirection=east;shape=stencil(rVJJEoMgEHwNRykE17Mx/6AiKhUi1kii+X0waAXNcsptprtnaRjEiqHlvUCUDAb0WYyyMi1iB0Sp7FoB0tgIsRKxotYgGtDXrnJ5z2flHF30be4wubqUYJLNVZTcHRIS8syPTq5k58lXchWnMU5yX87hZFnwuseuANb2IcXxgi0qmuB8uwPBcbRIAj7JIQBtuJG6W2jHKQ6NCOzEoFa82VDDKET/Bn+0tDVEI5z9MJRkOGN7QwQnGz/f3/RfdkJ/Qxu8freWSrnj8Pn9NVjIXRIrHw==);strokeColor=none;strokeWidth=0;spacingTop=-3;spacingBottom=-3;spacingLeft=-3;spacingRight=-3;points=[];labelBackgroundColor=none;rounded=0;html=1;whiteSpace=wrap;" parent="28" vertex="1">
          <mxGeometry x="4" y="21" width="30" height="19" as="geometry" />
        </mxCell>
        <mxCell id="32" style="vsdxID=10;fillColor=#a8dbf0;gradientColor=#5b9bd5;shape=stencil(vZTBbsMgDIafhmMsMIHAueveA60kQctCRdK1e/uREW11Jk27NDdj/4ZP5peZPEy9O3uGfJpTfPXXcJp7Jp8YYhh7n8KcIyaPTB7amHyX4mU8lfPZLcoleovvyw230seXDuQf5SQaUOIr81zELr3kalrF2oA2pSGtHaihliW1ikwNaOmtIFZF5W5hqlKc3RziSAgGlzpf5feqdnAdKU1X78936T8IsZZgNog2pxRBtAIaiogcrNoLUtVcAerNIHljwVrKWYMRhFM2YHC3YWrFQUvKKbj4xSk4tVFjAHejVAJqtWG0YAhgkzWGIGZTfPv24YiLAzffLTUIpENEUBTRPtSTQxj/vwdy8LNB2jAMZQHd17cbJ6fKtpLHTw==);strokeColor=none;strokeWidth=0;spacingTop=-3;spacingBottom=-3;spacingLeft=-3;spacingRight=-3;points=[];labelBackgroundColor=none;rounded=0;html=1;whiteSpace=wrap;" parent="28" vertex="1">
          <mxGeometry x="26" y="35" width="10" height="28" as="geometry" />
        </mxCell>
        <mxCell id="33" style="vsdxID=11;fillColor=#5b9bd5;gradientColor=#4974ba;gradientDirection=east;shape=stencil(fVLZTsNADPyavK587eFHVMp/VDQlEaWp0hbK37PbDaQOiCgPPma8M5YbXp26zbFtCE7ncXhtP/rtuWv4sSHqD1079uccNbxueLUbxvZlHC6Hbc2Pm4Is0dvwXiZcK4+cSCERfNYCiitp/p8qft8fDD5ZvPcODf75MtYHcGaIeiBkjgiqaeLj3QBkRIlesPauVHswQac0RkdMMYWUPEmEbzTXtohLOjGmkqLDMKuDhz8E3mjMKBzCL3W3ARC8jxwjeLL6lF2WkVgpACNbtQjg4O6LVm1uW63FHS202uWrOh/N9uG/zRd4CCgelCSgNQbWSchLiApJA3pltE5yM978i2ICWWzdQbBGkNxy5zmeL3DX7/f1gH+k52B5sblUr53XXw==);strokeColor=none;strokeWidth=0;spacingTop=-3;spacingBottom=-3;spacingLeft=-3;spacingRight=-3;points=[];labelBackgroundColor=none;rounded=0;html=1;whiteSpace=wrap;" parent="28" vertex="1">
          <mxGeometry x="13" y="21" width="11" height="6" as="geometry" />
        </mxCell>
        <mxCell id="34" style="vsdxID=12;fillColor=#FFFFFF;gradientColor=#da8c36;shape=stencil(lZPBbsIwDIafpsdFju3E8XFi7D3QKKMao6iUjb39WpIyUpWi9VDF8e/6s2sXtDhuV4eyQDi2Tf1RflfrdlvQS4FY7bdlU7XdqaBlQYtN3ZTvTX3ar6N9WPXK/vRZf/VfOMc4C9DHIPxE24FButy8RvnbqYl6GwUajBMPwiGwSopNvgBGUawEJWH10XnG6BRvBJwjAXaBWTXF4hXEwM2DKZoGriSnnPtCCc8ToEgGldmjOrZMOem9bAkGDENw5LwVdRQQgHPa6UoT2wh11NJJ2PsJh2rAeCJxoGht99YceLrYazVBRQC7OPZeVcJ8bx919t6ftA/S4cwE4XyZNJ7Wmd7uqv1/Bjzfhyd0mXywk7g7/G3Sptrt4iLe+seb113FraXlLw==);strokeColor=#996633;strokeWidth=0;spacingTop=-3;spacingBottom=-3;spacingLeft=-3;spacingRight=-3;points=[];labelBackgroundColor=none;rounded=0;html=1;whiteSpace=wrap;" parent="28" vertex="1">
          <mxGeometry x="8" width="20" height="23" as="geometry" />
        </mxCell>
        <mxCell id="35" style="vsdxID=13;fillColor=none;gradientColor=none;shape=stencil(nZFLDoMwDERP4y0KtoTYU3oPJEJjNU1QSH+3b4KFCqhdtLsZ53lkTYCayXSjBlRTDP6s79xHA3QARHZGB45JAbVAzeCDPgV/db34sctkVhd/ywkP2VN5A9VTXFUWFc6To8CW3VdYrcGfUrdwqbb44j+esIepLqj+OzuJdzEDWyu9rt/3RaaRfAK1Lw==);strokeColor=#1e4182;strokeWidth=0;spacingTop=-3;spacingBottom=-3;spacingLeft=-3;spacingRight=-3;points=[];labelBackgroundColor=none;rounded=0;html=1;whiteSpace=wrap;" parent="28" vertex="1">
          <mxGeometry x="6" y="37" width="16" height="23" as="geometry" />
        </mxCell>
        <mxCell id="36" style="vsdxID=14;fillColor=none;gradientColor=none;shape=stencil(lZbbcttGDIafRpfdARbny06SvkemcWpNXTujOG3y9v1piaJ2rVjt2GPRWoL8APw47OTd1/uPX+52nb4+H57+vPtn/+n5fifvd73vH+/vDvtnXO3kw07efX463P1xePr2+On4/5ePy53L1V9Pfy9P+H60S29ii1WnH8dvKpv2l29+Oxr8/u1wtODjDUzcJDhEIthW49NhabNQTTdlTeLj6fd+Oq1WrpVM0jvpevxjPaYGIsMb1KWU6mQtF9YnC9ksZIOlX6/wwswzOL2DzPrImwzedJLCD+sr4Gji1d3d8NFnYJdWeGgGZYXOuNFIR1znVrdorbF6Uaol/o60Ro0KgWXEvzJH1qQmVYLAmWf2kVR7qyBhjxSCv2QjbFjLCVapRd6gjQ6gTGHLgMMjrSTeqWRGUc420no2g0aCEBR1HWklmoG0I+ipxVU60ro2n2jFW/JE+7B/vJA6jHTN38lGWvhbUg/kKxBL7apOk9Q75FgENQvDm9ogT06Eo5DElBy/MnnY4QGjQmzRpBCtmT7nw9cqPHvIiNgtrV9/56r1hhd1FmRL3WjWOsScUAdaAvdE8Z1r7XROI6HmFk65vOPndAIRiiv44EzKSEcjTV/ULKoWBvIaUX7miVzY/v/gXX8lbwkrTnKoRnIKHQ7R11LQJWzTySpmaiyoAYNUvPcRVfhVT4Mq7W0lZ/NVG+dSvajU157BgIO93BlK89Gzpc7Lccyp0mlrDatzLXoU2rV493ONb33FWJjQYTNPEd7y0CaB6JUsjK6hwY01Goh7vOXbYtHRDdHh0TxfyerFHuLGXCMTDIPRuV8wQIDO5ZKLg6N3ERhIggZnaAVz6pbWN7oX+R86Jtq7hCIfFl2jJpnlqaGqe/LqywrLHYPXOEJC0iZWTDJXdjwTs9OmioClTTLD/RE3YDu2g5c2LFGmqLmpoxSmJ3SzzFiMYptwoQ1M80RonTBcaS6MkoZqK6gKLgvFiGzR3EZkzMZb49OWmZO05NRR9HN4yxtzLFotgWJiBMZM4mVvwUZg2af4Ymdp5OjyGM2A9UkNl4vUijtuUtcK+fb2hYttd/u8f3g4rn6X5/Ouh6+Oe6J8+Bc=);strokeColor=#c8c8c8;spacingTop=-3;spacingBottom=-3;spacingLeft=-3;spacingRight=-3;points=[];labelBackgroundColor=none;rounded=0;html=1;whiteSpace=wrap;" parent="28" vertex="1">
          <mxGeometry x="1" width="35" height="64" as="geometry" />
        </mxCell>
        <mxCell id="37" value="&lt;div style=&quot;font-size: 1px&quot;&gt;&lt;font style=&quot;font-size:16.93px;font-family:Times New Roman;color:#000000;direction:ltr;letter-spacing:0px;line-height:120%;opacity:1&quot;&gt;CD&lt;br/&gt;&lt;/font&gt;&lt;/div&gt;" style="text;vsdxID=6;fillColor=none;gradientColor=none;strokeColor=none;points=[];labelBackgroundColor=none;rounded=0;html=1;whiteSpace=wrap;verticalAlign=middle;align=center;overflow=width;;html=1;" parent="28" vertex="1">
          <mxGeometry x="-0.48" y="66" width="39.05" height="31.61" as="geometry" />
        </mxCell>
        <UserObject label="&lt;div style=&quot;&quot;&gt;&lt;font style=&quot;font-family: &amp;quot;Times New Roman&amp;quot;; color: rgb(0, 0, 0); direction: ltr; letter-spacing: 0px; line-height: 120%; opacity: 1; font-size: 18px;&quot;&gt;Composition Editor&lt;/font&gt;&lt;font style=&quot;font-size: 16.93px; font-family: &amp;quot;Times New Roman&amp;quot;; color: rgb(60, 102, 140); direction: ltr; letter-spacing: 0px; line-height: 120%; opacity: 1;&quot;&gt;&lt;br&gt;&lt;/font&gt;&lt;/div&gt;" tags="Background" id="38">
          <mxCell style="verticalAlign=middle;align=center;overflow=width;vsdxID=93;fillColor=none;gradientColor=none;shape=stencil(nZBLDoAgDERP0z3SIyjew0SURgSD+Lu9kMZoXLhwN9O+tukAlrNpJg1SzDH4QW/URgNYgZTkjA4UkwJUgGXng+6DX1zLfmoymdXo17xh5zmRJ6Q42BWCfc2oJfdAr+Yv+AP9Cb7OJ3H/2JG1HNGz/84klThPVCc=);strokeColor=none;strokeWidth=2;points=[];labelBackgroundColor=none;rounded=0;html=1;whiteSpace=wrap;" parent="1" vertex="1">
            <mxGeometry x="382" y="320" width="107" height="48" as="geometry" />
          </mxCell>
        </UserObject>
        <UserObject label="" tags="Background" id="39">
          <mxCell style="vsdxID=116;fillColor=none;gradientColor=none;strokeColor=none;strokeWidth=2;points=[];labelBackgroundColor=none;rounded=0;html=1;whiteSpace=wrap;" parent="1" vertex="1">
            <mxGeometry x="279" y="312" width="107" height="84" as="geometry" />
          </mxCell>
        </UserObject>
        <mxCell id="40" style="vsdxID=87;fillColor=#d8d8d8;gradientColor=none;shape=stencil(nZBLDoAgDERP0z3SIyjew0SURgSD+Lu9kMZoXLhwN9O+tukAlrNpJg1SzDH4QW/URgNYgZTkjA4UkwJUgGXng+6DX1zLfmoymdXo17xh5zmRJ6Q42BWCfc2oJfdAr+Yv+AP9Cb7OJ3H/2JG1HNGz/84klThPVCc=);strokeColor=#000000;points=[[0.5,1,0],[1,0.5,0],[0.5,0,0],[0,0.5,0],[0.5,0.5,0]];labelBackgroundColor=none;rounded=0;html=1;whiteSpace=wrap;" parent="39" vertex="1">
          <mxGeometry width="107" height="84" as="geometry" />
        </mxCell>
        <mxCell id="41" style="vsdxID=88;fillColor=#7f7f7f;gradientColor=none;shape=stencil(nZBLDoAgDERP0z3SIyjew0SURgSD+Lu9kMZoXLhwN9O+tukAlrNpJg1SzDH4QW/URgNYgZTkjA4UkwJUgGXng+6DX1zLfmoymdXo17xh5zmRJ6Q42BWCfc2oJfdAr+Yv+AP9Cb7OJ3H/2JG1HNGz/84klThPVCc=);strokeColor=#000000;points=[[0,0.5,0],[1,0.5,0],[0.5,1,0],[0.5,0,0]];labelBackgroundColor=none;rounded=0;html=1;whiteSpace=wrap;" parent="39" vertex="1">
          <mxGeometry x="19" y="16" width="12" height="12" as="geometry" />
        </mxCell>
        <mxCell id="42" style="vsdxID=89;fillColor=#7f7f7f;gradientColor=none;shape=stencil(nZBLDoAgDERP0z3SIyjew0SURgSD+Lu9kMZoXLhwN9O+tukAlrNpJg1SzDH4QW/URgNYgZTkjA4UkwJUgGXng+6DX1zLfmoymdXo17xh5zmRJ6Q42BWCfc2oJfdAr+Yv+AP9Cb7OJ3H/2JG1HNGz/84klThPVCc=);strokeColor=#000000;points=[[0,0.5,0],[1,0.5,0],[0.5,1,0],[0.5,0,0]];labelBackgroundColor=none;rounded=0;html=1;whiteSpace=wrap;" parent="39" vertex="1">
          <mxGeometry x="38" y="35" width="12" height="12" as="geometry" />
        </mxCell>
        <mxCell id="43" style="vsdxID=90;fillColor=#7f7f7f;gradientColor=none;shape=stencil(nZBLDoAgDERP0z3SIyjew0SURgSD+Lu9kMZoXLhwN9O+tukAlrNpJg1SzDH4QW/URgNYgZTkjA4UkwJUgGXng+6DX1zLfmoymdXo17xh5zmRJ6Q42BWCfc2oJfdAr+Yv+AP9Cb7OJ3H/2JG1HNGz/84klThPVCc=);strokeColor=#000000;points=[[0,0.5,0],[1,0.5,0],[0.5,1,0],[0.5,0,0]];labelBackgroundColor=none;rounded=0;html=1;whiteSpace=wrap;" parent="39" vertex="1">
          <mxGeometry x="19" y="55" width="12" height="12" as="geometry" />
        </mxCell>
        <UserObject label="" tags="Connector" id="134">
          <mxCell style="vsdxID=91;edgeStyle=none;startArrow=none;endArrow=block;startSize=5;endSize=5;strokeColor=#000000;spacingTop=0;spacingBottom=0;spacingLeft=0;spacingRight=0;verticalAlign=middle;html=1;labelBackgroundColor=#ffffff;rounded=0;exitX=0.5;exitY=1;exitDx=0;exitDy=0;exitPerimeter=0;entryX=0.5;entryY=-0.08333333333333333;entryDx=0;entryDy=0;entryPerimeter=0;" parent="39" source="41" target="43" edge="1">
            <mxGeometry relative="1" as="geometry">
              <mxPoint x="12" y="-1" as="offset" />
              <Array as="points" />
            </mxGeometry>
          </mxCell>
        </UserObject>
        <UserObject label="" tags="Background" id="44">
          <mxCell style="vsdxID=119;fillColor=none;gradientColor=none;strokeColor=none;strokeWidth=2;points=[];labelBackgroundColor=none;rounded=0;html=1;whiteSpace=wrap;" parent="1" vertex="1">
            <mxGeometry x="279" y="450" width="107" height="84" as="geometry" />
          </mxCell>
        </UserObject>
        <mxCell id="45" style="vsdxID=97;fillColor=none;gradientColor=none;shape=stencil(nZBLDoAgDERP0z3SIyjew0SURgSD+Lu9kMZoXLhwN9O+tukAlrNpJg1SzDH4QW/URgNYgZTkjA4UkwJUgGXng+6DX1zLfmoymdXo17xh5zmRJ6Q42BWCfc2oJfdAr+Yv+AP9Cb7OJ3H/2JG1HNGz/84klThPVCc=);strokeColor=#000000;points=[[0.5,1,0],[1,0.5,0],[0.5,0,0],[0,0.5,0],[0.5,0.5,0]];labelBackgroundColor=none;rounded=0;html=1;whiteSpace=wrap;" parent="44" vertex="1">
          <mxGeometry width="107" height="84" as="geometry" />
        </mxCell>
        <mxCell id="46" style="vsdxID=100;fillColor=#bfbfbf;gradientColor=none;shape=stencil(nZBLDoAgDERP0z3SIyjew0SURgSD+Lu9kMZoXLhwN9O+tukAlrNpJg1SzDH4QW/URgNYgZTkjA4UkwJUgGXng+6DX1zLfmoymdXo17xh5zmRJ6Q42BWCfc2oJfdAr+Yv+AP9Cb7OJ3H/2JG1HNGz/84klThPVCc=);strokeColor=#000000;points=[[0.5,1,0],[1,0.5,0],[0.5,0,0],[0,0.5,0],[0.5,0.5,0]];labelBackgroundColor=none;rounded=0;html=1;whiteSpace=wrap;" parent="44" vertex="1">
          <mxGeometry x="12" y="10" width="82" height="12" as="geometry" />
        </mxCell>
        <mxCell id="47" style="vsdxID=101;fillColor=none;gradientColor=none;strokeColor=none;strokeWidth=2;spacingTop=-3;spacingBottom=-3;spacingLeft=-3;spacingRight=-3;points=[[0,0.5,0],[1,0.5,0],[0.5,0,0],[0.5,1,0]];labelBackgroundColor=none;rounded=0;html=1;whiteSpace=wrap;" parent="44" vertex="1">
          <mxGeometry x="12" y="42" width="25" height="25" as="geometry" />
        </mxCell>
        <mxCell id="48" style="vsdxID=102;fillColor=none;gradientColor=none;strokeColor=none;strokeWidth=2;spacingTop=-3;spacingBottom=-3;spacingLeft=-3;spacingRight=-3;points=[[0,0.5,0],[1,0.5,0],[0.5,0,0],[0.5,1,0]];labelBackgroundColor=none;rounded=0;html=1;whiteSpace=wrap;" parent="47" vertex="1">
          <mxGeometry y="-1" width="25" height="25" as="geometry" />
        </mxCell>
        <mxCell id="49" style="vsdxID=103;fillColor=none;gradientColor=none;shape=stencil(nZBLDoAgDERP0z3SIyjew0SURgSD+Lu9kMZoXLhwN9O+tukAlrNpJg1SzDH4QW/URgNYgZTkjA4UkwJUgGXng+6DX1zLfmoymdXo17xh5zmRJ6Q42BWCfc2oJfdAr+Yv+AP9Cb7OJ3H/2JG1HNGz/84klThPVCc=);strokeColor=#000000;strokeWidth=2;spacingTop=-3;spacingBottom=-3;spacingLeft=-3;spacingRight=-3;points=[[0,0.5,0],[1,0.5,0],[0.5,0,0],[0.5,1,0]];labelBackgroundColor=none;rounded=0;html=1;whiteSpace=wrap;" parent="48" vertex="1">
          <mxGeometry width="25" height="24" as="geometry" />
        </mxCell>
        <mxCell id="50" style="vsdxID=104;fillColor=none;gradientColor=none;shape=stencil(nZBLDoAgDERP0z3SIyjew0SURgSD+Lu9kMZoXLhwN9O+tukAlrNpJg1SzDH4QW/URgNYgZTkjA4UkwJUgGXng+6DX1zLfmoymdXo17xh5zmRJ6Q42BWCfc2oJfdAr+Yv+AP9Cb7OJ3H/2JG1HNGz/84klThPVCc=);strokeColor=#000000;strokeWidth=2;spacingTop=-3;spacingBottom=-3;spacingLeft=-3;spacingRight=-3;points=[[0,0.5,0],[1,0.5,0],[0.5,0,0],[0.5,1,0]];labelBackgroundColor=none;rounded=0;html=1;whiteSpace=wrap;" parent="48" vertex="1">
          <mxGeometry width="23" height="23" as="geometry" />
        </mxCell>
        <mxCell id="51" style="vsdxID=105;fillColor=none;gradientColor=none;shape=stencil(lZHNDoMgEISfZq8G2NJ4t/Y9TEQhpWCQ/r29kE1TaaJpbzPwDdkdAJtZd5MCweYY/EU9TB814AmEME6rYGJSgC1gM/igxuBvric/dZnM6urv+YUn5ThjOSPYizy5M6HWuBVal+SRV/KwTcsC5rLCehv+jy7neG/wA7oD7vaQxKe/wVhL9a/vv/tOR/RX2C4=);strokeColor=#000000;strokeWidth=2;spacingTop=-3;spacingBottom=-3;spacingLeft=-3;spacingRight=-3;flipH=1;flipV=1;points=[[0,0.5,0],[1,0.5,0],[0.5,0,0],[0.5,1,0]];labelBackgroundColor=none;rounded=0;html=1;whiteSpace=wrap;" parent="48" vertex="1">
          <mxGeometry x="3" y="14" width="17" height="5" as="geometry" />
        </mxCell>
        <mxCell id="52" style="vsdxID=106;fillColor=none;gradientColor=none;shape=stencil(lZHNDoMgEISfZq8G2NJ4t/Y9TEQhpWCQ/r29kE1TaaJpbzPwDdkdAJtZd5MCweYY/EU9TB814AmEME6rYGJSgC1gM/igxuBvric/dZnM6urv+YUn5ThjOSPYizy5M6HWuBVal+SRV/KwTcsC5rLCehv+jy7neG/wA7oD7vaQxKe/wVhL9a/vv/tOR/RX2C4=);strokeColor=#000000;strokeWidth=2;spacingTop=-3;spacingBottom=-3;spacingLeft=-3;spacingRight=-3;points=[[0,0.5,0],[1,0.5,0],[0.5,0,0],[0.5,1,0]];labelBackgroundColor=none;rounded=0;html=1;whiteSpace=wrap;" parent="48" vertex="1">
          <mxGeometry x="3" y="14" width="17" height="5" as="geometry" />
        </mxCell>
        <mxCell id="53" style="vsdxID=107;fillColor=none;gradientColor=none;shape=stencil(nZBLDoAgDERP0z3SIyjew0SURgSD+Lu9kMZoXLhwN9O+tukAlrNpJg1SzDH4QW/URgNYgZTkjA4UkwJUgGXng+6DX1zLfmoymdXo17xh5zmRJ6Q42BWCfc2oJfdAr+Yv+AP9Cb7OJ3H/2JG1HNGz/84klThPVCc=);strokeColor=#000000;strokeWidth=2;spacingTop=-3;spacingBottom=-3;spacingLeft=-3;spacingRight=-3;points=[[0,0.5,0],[1,0.5,0],[0.5,0,0],[0.5,1,0]];labelBackgroundColor=none;rounded=0;html=1;whiteSpace=wrap;" parent="48" vertex="1">
          <mxGeometry x="4" y="15" width="15" height="3" as="geometry" />
        </mxCell>
        <mxCell id="54" style="vsdxID=108;fillColor=none;gradientColor=none;shape=stencil(nZBLDoAgDERP0z3SIyjew0SURgSD+Lu9kMZoXLhwN9O+tukAlrNpJg1SzDH4QW/URgNYgZTkjA4UkwJUgGXng+6DX1zLfmoymdXo17xh5zmRJ6Q42BWCfc2oJfdAr+Yv+AP9Cb7OJ3H/2JG1HNGz/84klThPVCc=);strokeColor=#000000;spacingTop=-3;spacingBottom=-3;spacingLeft=-3;spacingRight=-3;points=[[0,0.5,0],[1,0.5,0],[0.5,0,0],[0.5,1,0]];labelBackgroundColor=none;rounded=0;html=1;whiteSpace=wrap;" parent="48" vertex="1">
          <mxGeometry x="3" y="14" width="17" height="5" as="geometry" />
        </mxCell>
        <mxCell id="55" style="vsdxID=109;fillColor=none;gradientColor=none;shape=stencil(UzV2Ls5ILEhVNTIoLinKz04tz0wpyVA1dlE1MsrMy0gtyiwBslSNXVWNndPyi1LTi/JL81Ig/IJEkEoQKze/DGRCBUSfAUiHkUElhGdsqmduCBZxgyjOycxDUmxoQJFyA9xKyVSI4QB8noM5hyi3kqTYzETPyJJYN5OkGM0ZQAYiItMyc3Ig6QBZHj3igUKQRGPsCgA=);strokeColor=#000000;strokeWidth=2;spacingTop=-3;spacingBottom=-3;spacingLeft=-3;spacingRight=-3;points=[[0,0.5,0],[1,0.5,0],[0.5,0,0],[0.5,1,0]];labelBackgroundColor=none;rounded=0;html=1;whiteSpace=wrap;" parent="48" vertex="1">
          <mxGeometry x="3" y="3" width="16" height="8" as="geometry" />
        </mxCell>
        <mxCell id="56" style="vsdxID=110;fillColor=none;gradientColor=none;shape=stencil(pZJNDsIgEIVPw5bgjNh0Xes9mpRaIkJD69/tBYmx1rTQuHsM3zCZxyNY9G3VCQKsH6w5iZush5bgngBI3QorB6cIlgSLxlhxtOai63DuKk96dTZX/8I99OUZ5eC7gD1CZUeBvwqHwCupRzxSzv/B0c2bx9kXu0WaJcNsHtywZDRuR9Q+WFrw1751eL7GkvfeCShf/sapgxE87ooTn0Q2UqkQ6PH9NMGuFNKP5RM=);strokeColor=#000000;strokeWidth=2;spacingTop=-3;spacingBottom=-3;spacingLeft=-3;spacingRight=-3;points=[[0,0.5,0],[1,0.5,0],[0.5,0,0],[0.5,1,0]];labelBackgroundColor=none;rounded=0;html=1;whiteSpace=wrap;" parent="48" vertex="1">
          <mxGeometry x="2" y="2" width="17" height="9" as="geometry" />
        </mxCell>
        <mxCell id="57" style="vsdxID=111;fillColor=none;gradientColor=none;shape=stencil(pZNNDsIgEIVPw5bgDLR2Xes9mpRaYoWG4t/tLRJjrYaGuJt5fI9kHgPBcuzqQRJgo7PmKK+qcR3BHQFQupNWuakiWBEsW2PlwZqzbkI/1J701clc/A234APKt94E7B6EAmkunso+8L3SM77IKBf/GTKgEX7D2ActMgoJ+Kv/CSeg67ms5Ih5bMrvVFL5tFgiky5RHn/PJHg1lal4b2ar+j4s9vx8ucmTFH4BVg8=);strokeColor=#000000;strokeWidth=2;spacingTop=-3;spacingBottom=-3;spacingLeft=-3;spacingRight=-3;points=[[0,0.5,0],[1,0.5,0],[0.5,0,0],[0.5,1,0]];labelBackgroundColor=none;rounded=0;html=1;whiteSpace=wrap;" parent="48" vertex="1">
          <mxGeometry x="2" y="2" width="17" height="9" as="geometry" />
        </mxCell>
        <mxCell id="58" value="&lt;div style=&quot;font-size: 1px&quot;&gt;&lt;/div&gt;" style="text;vsdxID=101;fillColor=none;gradientColor=none;strokeColor=none;strokeWidth=2;spacingTop=-3;spacingBottom=-3;spacingLeft=-3;spacingRight=-3;points=[[0,0.5,0],[1,0.5,0],[0.5,0,0],[0.5,1,0]];labelBackgroundColor=none;rounded=0;html=1;whiteSpace=wrap;verticalAlign=middle;align=center;;html=1;" parent="47" vertex="1">
          <mxGeometry x="12.7" y="26.41" height="20.32" as="geometry" />
        </mxCell>
        <UserObject label="&lt;div style=&quot;&quot;&gt;&lt;font style=&quot;font-family: &amp;quot;Times New Roman&amp;quot;; color: rgb(0, 0, 0); direction: ltr; letter-spacing: 0px; line-height: 120%; opacity: 1; font-size: 18px;&quot;&gt;Final Composite Application&lt;/font&gt;&lt;font style=&quot;font-size: 16.93px; font-family: &amp;quot;Times New Roman&amp;quot;; color: rgb(60, 102, 140); direction: ltr; letter-spacing: 0px; line-height: 120%; opacity: 1;&quot;&gt;&lt;br&gt;&lt;/font&gt;&lt;/div&gt;" tags="Background" id="59">
          <mxCell style="verticalAlign=middle;align=center;overflow=width;vsdxID=120;fillColor=none;gradientColor=none;shape=stencil(nZBLDoAgDERP0z3SIyjew0SURgSD+Lu9kMZoXLhwN9O+tukAlrNpJg1SzDH4QW/URgNYgZTkjA4UkwJUgGXng+6DX1zLfmoymdXo17xh5zmRJ6Q42BWCfc2oJfdAr+Yv+AP9Cb7OJ3H/2JG1HNGz/84klThPVCc=);strokeColor=none;strokeWidth=2;points=[];labelBackgroundColor=none;rounded=0;html=1;whiteSpace=wrap;" parent="1" vertex="1">
            <mxGeometry x="389" y="460" width="135" height="46" as="geometry" />
          </mxCell>
        </UserObject>
        <UserObject label="" tags="Background" id="60">
          <mxCell style="vsdxID=48;fillColor=none;gradientColor=none;strokeColor=none;points=[];labelBackgroundColor=none;rounded=0;html=1;whiteSpace=wrap;" parent="1" vertex="1">
            <mxGeometry x="116" y="166" width="38" height="66" as="geometry" />
          </mxCell>
        </UserObject>
        <mxCell id="61" style="vsdxID=49;fillColor=#000000;gradientColor=none;fillOpacity=0;shape=stencil(vVfbUhs5EP0aP6JSq++PW0n2P1yJAdeymDJkQ/5+z6xnxkgOUPsQigfGklo6fdHpow1/erzdPuw2rT4+HQ9/7X7svz3dbvjzprX9/e3uuH/C14a/bPjT9eG4uzkevt9/O/1+2E4rp6+/D/9MOzyf7LLwZNPqz9NvqUX9v5E/T8vv9vcvlkcxGtd7vlz/9fvxtD/NC4oEi1qL1rjNtstcK+wuQo1UiGqV0/xzO823oq1RVFU2a4vxPClaqDI3Z4CgefKZF8ua8/J5RAKbnYHWP36BlYpl1ARcVhWplXq8ysDLLT0yOVoPlgoHk7unNk/qwaoXpsQwzLlqD5ZKsx6sRokcwPaJqMWsS4RZYXsrERWJiBBPd8Z/eKe9dzZFyEVrTTHN3rtaCLkIo4qge2TvnrcCw0bIsBr33tXeNZdi+k4ermqZ8muCHSsSnLUOleNRJKtHs0qZA1Yp7gGY4W5tqakFaiDaXgVWUS2GRKDgtIeL5f4e3KluhFORWJMxqmElg1oawmdOQ4FzSRVAmc72AWgWEquabYqB9UjZC/VAsyFD7wAVL2Eijm1pgJmCIpyKWnyq3qG2Ub5mxlSzEUePM7UEbILMzVBXPdDJ0gekk8E7SE2nkEZGWjDreBEzS1TCRHCAHJR7uE6o9YprXB1xGQoANANXEYJwbFwrD7fREdoxtlnG27g9fsWC43wbGQfOITvO95G8yJK0eRdU3oJlHkFtLKdfbZ/3j1fHw9P2aX+4767O3fZ4s7vCiVfXd9ubburxx273cDE8M0CPkRD2HmIUjw4hQtPjQ6Too/ChgNb4LAhBxGVN7owJN79vQSCfFh8WRXDows3nXFfJC5zIf3Q4TcqHwXQtdci2gMmoh4gO6h1E1bKS6W/HaOhhQ76Z0YE7jCZjGNkWRv4tGPs2Ox3fCyRA9PbSYKQukA+DJRVNPEWWRjlPMnwmTIDU8N8zfWAuJABEywKFYTYwbdPCklbTvGmbqGtgLisytC+KpS5f51qfuDYbK4mD43vAoG+wAtoD2jEzOlWP16CIItngsUI31bHb1sLoGqEGb6aNrHqPGbJsYc6ffJGOX+JFBgTxUchCklEYvH7gEsQpAxlQMkjA2qzb297yasv5/wMMM506DloL5MgQYCQV3Af1ZGokg5LBJESOWypkZQ6xRS1Ji9AKSoJeW+dXjUAlokeL0KkNaPuCz5XczgKf3xT4WSzw55qiTpRDxcNeICdJAqoLaclB4+ck5FB7UBCQ+EPFT68RBADaCYJFhkZ9frrwefUoLPrXDjre6NzcAl9xDu8d10mI4tqR6YVrnhV3GOvayklttVT4bY56Qr1lXnjmqEJNRfaguHJwDuaX3gUN3uH7/LC73t/dnd6Fqzv4GB+CGDo9IvnLvw==);strokeColor=none;strokeWidth=0;shadow=1;spacingTop=-3;spacingBottom=-3;spacingLeft=-3;spacingRight=-3;points=[];labelBackgroundColor=none;rounded=0;html=1;whiteSpace=wrap;" parent="60" vertex="1">
          <mxGeometry x="1" y="1" width="35" height="64" as="geometry" />
        </mxCell>
        <mxCell id="62" style="vsdxID=50;fillColor=#dcf1fa;gradientColor=#5b9bd5;shape=stencil(hZXLUhsxEEW/xktU/X4sU0D+gwomuEIwZSCBv08PM2MjJRXvZiS1dPr2bWnDl8/3N0/bDcHzy2H/Y/t7d/tyv+GrDdHu8X572L3U14avN3x5tz9svx/2r4+38//TzbRy+vq5/zXt8DbHYTOZggje5wGmhvox8nVe/+31MAfgGhFAyUmWwsyZucQv85RNNT1CmRxxnX6jZboRIgUCEJjyErtOcgMxIVRG8iWQ10DHZfUygtqAT6jw5R+0UhuSW4i424nm/VMyAgbgqgSZ7D0tWiOzShizkKOnvdCGRkmkEBkAC8yRWKEdE+QVB88AazaMUqa0QXUagaNZqEDBmAudjlx5QZpZpSQuGMWEg8DQwgU0tQpdpUrrkdMaS4/sBUQD9MPu8bOHADoLZbaQ/1koqVlqCE/Si/1VFIAmbI6KkRaOQ5JRupNHega5Z59hHW5OWMW08qYm9Qm6NI8+weSGeaYqH2FctnYSYu15pw0i2DAZkEV6WqMGziGJieA+0JZFqoxR9qqWUe1hJRoOng8vQ5+BZawTEUUqfTmWczVQ4YSJsjtDxtCcUZEigaV6oPSsHk2RLRLKnKuxVtSpUQZdrWwQZ1ArChQ41KIcUS00SFt7QEmrJa2xDM15AXUmuqOnVD+IZg7ymrTa1MM0qoOPV9UKDQ0GebUU9zPMdSpM+riaAEYdQD201r2EVVIg14wBGurCZYryA9cdScOVUhUHrdpVk1N1bxl4JF73O94o0mRUeWjPs1d8fZzeh7vdw8P8vHyeH9+TGprfIr7+Aw==);strokeColor=none;strokeWidth=0;spacingTop=-3;spacingBottom=-3;spacingLeft=-3;spacingRight=-3;points=[];labelBackgroundColor=none;rounded=0;html=1;whiteSpace=wrap;" parent="60" vertex="1">
          <mxGeometry x="1" y="25" width="27" height="39" as="geometry" />
        </mxCell>
        <mxCell id="63" style="vsdxID=51;fillColor=#f7f3e8;gradientColor=#a8dbf0;gradientDirection=east;shape=stencil(rVJJEoMgEHwNRykE17Mx/6AiKhUi1kii+X0waAXNcsptprtnaRjEiqHlvUCUDAb0WYyyMi1iB0Sp7FoB0tgIsRKxotYgGtDXrnJ5z2flHF30be4wubqUYJLNVZTcHRIS8syPTq5k58lXchWnMU5yX87hZFnwuseuANb2IcXxgi0qmuB8uwPBcbRIAj7JIQBtuJG6W2jHKQ6NCOzEoFa82VDDKET/Bn+0tDVEI5z9MJRkOGN7QwQnGz/f3/RfdkJ/Qxu8freWSrnj8Pn9NVjIXRIrHw==);strokeColor=none;strokeWidth=0;spacingTop=-3;spacingBottom=-3;spacingLeft=-3;spacingRight=-3;points=[];labelBackgroundColor=none;rounded=0;html=1;whiteSpace=wrap;" parent="60" vertex="1">
          <mxGeometry x="4" y="21" width="30" height="19" as="geometry" />
        </mxCell>
        <mxCell id="64" style="vsdxID=52;fillColor=#a8dbf0;gradientColor=#5b9bd5;shape=stencil(vZTBbsMgDIafhmMsMIHAueveA60kQctCRdK1e/uREW11Jk27NDdj/4ZP5peZPEy9O3uGfJpTfPXXcJp7Jp8YYhh7n8KcIyaPTB7amHyX4mU8lfPZLcoleovvyw230seXDuQf5SQaUOIr81zELr3kalrF2oA2pSGtHaihliW1ikwNaOmtIFZF5W5hqlKc3RziSAgGlzpf5feqdnAdKU1X78936T8IsZZgNog2pxRBtAIaiogcrNoLUtVcAerNIHljwVrKWYMRhFM2YHC3YWrFQUvKKbj4xSk4tVFjAHejVAJqtWG0YAhgkzWGIGZTfPv24YiLAzffLTUIpENEUBTRPtSTQxj/vwdy8LNB2jAMZQHd17cbJ6fKtpLHTw==);strokeColor=none;strokeWidth=0;spacingTop=-3;spacingBottom=-3;spacingLeft=-3;spacingRight=-3;points=[];labelBackgroundColor=none;rounded=0;html=1;whiteSpace=wrap;" parent="60" vertex="1">
          <mxGeometry x="26" y="35" width="10" height="28" as="geometry" />
        </mxCell>
        <mxCell id="65" style="vsdxID=53;fillColor=#5b9bd5;gradientColor=#4974ba;gradientDirection=east;shape=stencil(fVLZTsNADPyavK587eFHVMp/VDQlEaWp0hbK37PbDaQOiCgPPma8M5YbXp26zbFtCE7ncXhtP/rtuWv4sSHqD1079uccNbxueLUbxvZlHC6Hbc2Pm4Is0dvwXiZcK4+cSCERfNYCiitp/p8qft8fDD5ZvPcODf75MtYHcGaIeiBkjgiqaeLj3QBkRIlesPauVHswQac0RkdMMYWUPEmEbzTXtohLOjGmkqLDMKuDhz8E3mjMKBzCL3W3ARC8jxwjeLL6lF2WkVgpACNbtQjg4O6LVm1uW63FHS202uWrOh/N9uG/zRd4CCgelCSgNQbWSchLiApJA3pltE5yM978i2ICWWzdQbBGkNxy5zmeL3DX7/f1gH+k52B5sblUr53XXw==);strokeColor=none;strokeWidth=0;spacingTop=-3;spacingBottom=-3;spacingLeft=-3;spacingRight=-3;points=[];labelBackgroundColor=none;rounded=0;html=1;whiteSpace=wrap;" parent="60" vertex="1">
          <mxGeometry x="13" y="21" width="11" height="6" as="geometry" />
        </mxCell>
        <mxCell id="66" style="vsdxID=54;fillColor=#FFFFFF;gradientColor=#da8c36;shape=stencil(lZPBbsIwDIafpsdFju3E8XFi7D3QKKMao6iUjb39WpIyUpWi9VDF8e/6s2sXtDhuV4eyQDi2Tf1RflfrdlvQS4FY7bdlU7XdqaBlQYtN3ZTvTX3ar6N9WPXK/vRZf/VfOMc4C9DHIPxE24FButy8RvnbqYl6GwUajBMPwiGwSopNvgBGUawEJWH10XnG6BRvBJwjAXaBWTXF4hXEwM2DKZoGriSnnPtCCc8ToEgGldmjOrZMOem9bAkGDENw5LwVdRQQgHPa6UoT2wh11NJJ2PsJh2rAeCJxoGht99YceLrYazVBRQC7OPZeVcJ8bx919t6ftA/S4cwE4XyZNJ7Wmd7uqv1/Bjzfhyd0mXywk7g7/G3Sptrt4iLe+seb113FraXlLw==);strokeColor=#996633;strokeWidth=0;spacingTop=-3;spacingBottom=-3;spacingLeft=-3;spacingRight=-3;points=[];labelBackgroundColor=none;rounded=0;html=1;whiteSpace=wrap;" parent="60" vertex="1">
          <mxGeometry x="8" width="20" height="23" as="geometry" />
        </mxCell>
        <mxCell id="67" style="vsdxID=55;fillColor=none;gradientColor=none;shape=stencil(nZFLDoMwDERP4y0KtoTYU3oPJEJjNU1QSH+3b4KFCqhdtLsZ53lkTYCayXSjBlRTDP6s79xHA3QARHZGB45JAbVAzeCDPgV/db34sctkVhd/ywkP2VN5A9VTXFUWFc6To8CW3VdYrcGfUrdwqbb44j+esIepLqj+OzuJdzEDWyu9rt/3RaaRfAK1Lw==);strokeColor=#1e4182;strokeWidth=0;spacingTop=-3;spacingBottom=-3;spacingLeft=-3;spacingRight=-3;points=[];labelBackgroundColor=none;rounded=0;html=1;whiteSpace=wrap;" parent="60" vertex="1">
          <mxGeometry x="6" y="37" width="16" height="23" as="geometry" />
        </mxCell>
        <mxCell id="68" style="vsdxID=56;fillColor=none;gradientColor=none;shape=stencil(lZbbcttGDIafRpfdARbny06SvkemcWpNXTujOG3y9v1piaJ2rVjt2GPRWoL8APw47OTd1/uPX+52nb4+H57+vPtn/+n5fifvd73vH+/vDvtnXO3kw07efX463P1xePr2+On4/5ePy53L1V9Pfy9P+H60S29ii1WnH8dvKpv2l29+Oxr8/u1wtODjDUzcJDhEIthW49NhabNQTTdlTeLj6fd+Oq1WrpVM0jvpevxjPaYGIsMb1KWU6mQtF9YnC9ksZIOlX6/wwswzOL2DzPrImwzedJLCD+sr4Gji1d3d8NFnYJdWeGgGZYXOuNFIR1znVrdorbF6Uaol/o60Ro0KgWXEvzJH1qQmVYLAmWf2kVR7qyBhjxSCv2QjbFjLCVapRd6gjQ6gTGHLgMMjrSTeqWRGUc420no2g0aCEBR1HWklmoG0I+ipxVU60ro2n2jFW/JE+7B/vJA6jHTN38lGWvhbUg/kKxBL7apOk9Q75FgENQvDm9ogT06Eo5DElBy/MnnY4QGjQmzRpBCtmT7nw9cqPHvIiNgtrV9/56r1hhd1FmRL3WjWOsScUAdaAvdE8Z1r7XROI6HmFk65vOPndAIRiiv44EzKSEcjTV/ULKoWBvIaUX7miVzY/v/gXX8lbwkrTnKoRnIKHQ7R11LQJWzTySpmaiyoAYNUvPcRVfhVT4Mq7W0lZ/NVG+dSvajU157BgIO93BlK89Gzpc7Lccyp0mlrDatzLXoU2rV493ONb33FWJjQYTNPEd7y0CaB6JUsjK6hwY01Goh7vOXbYtHRDdHh0TxfyerFHuLGXCMTDIPRuV8wQIDO5ZKLg6N3ERhIggZnaAVz6pbWN7oX+R86Jtq7hCIfFl2jJpnlqaGqe/LqywrLHYPXOEJC0iZWTDJXdjwTs9OmioClTTLD/RE3YDu2g5c2LFGmqLmpoxSmJ3SzzFiMYptwoQ1M80RonTBcaS6MkoZqK6gKLgvFiGzR3EZkzMZb49OWmZO05NRR9HN4yxtzLFotgWJiBMZM4mVvwUZg2af4Ymdp5OjyGM2A9UkNl4vUijtuUtcK+fb2hYttd/u8f3g4rn6X5/Ouh6+Oe6J8+Bc=);strokeColor=#c8c8c8;spacingTop=-3;spacingBottom=-3;spacingLeft=-3;spacingRight=-3;points=[];labelBackgroundColor=none;rounded=0;html=1;whiteSpace=wrap;" parent="60" vertex="1">
          <mxGeometry x="1" width="35" height="64" as="geometry" />
        </mxCell>
        <mxCell id="69" value="&lt;div style=&quot;font-size: 1px&quot;&gt;&lt;font style=&quot;font-size:16.93px;font-family:Times New Roman;color:#000000;direction:ltr;letter-spacing:0px;line-height:120%;opacity:1&quot;&gt;RM&lt;br/&gt;&lt;/font&gt;&lt;/div&gt;" style="text;vsdxID=48;fillColor=none;gradientColor=none;strokeColor=none;points=[];labelBackgroundColor=none;rounded=0;html=1;whiteSpace=wrap;verticalAlign=middle;align=center;overflow=width;;html=1;" parent="60" vertex="1">
          <mxGeometry x="-1.89" y="66" width="41.88" height="31.61" as="geometry" />
        </mxCell>
        <UserObject label="&lt;div style=&quot;&quot;&gt;&lt;font style=&quot;font-family: &amp;quot;Times New Roman&amp;quot;; color: rgb(0, 0, 0); direction: ltr; letter-spacing: 0px; line-height: 120%; opacity: 1; font-size: 18px;&quot;&gt;Components&lt;/font&gt;&lt;font style=&quot;font-size: 16.93px; font-family: &amp;quot;Times New Roman&amp;quot;; color: rgb(0, 0, 0); direction: ltr; letter-spacing: 0px; line-height: 120%; opacity: 1;&quot;&gt;&lt;br&gt;&lt;/font&gt;&lt;/div&gt;" tags="Background" id="70">
          <mxCell style="verticalAlign=middle;align=center;overflow=width;vsdxID=122;fillColor=none;gradientColor=none;shape=stencil(nZBLDoAgDERP0z3SIyjew0SURgSD+Lu9kMZoXLhwN9O+tukAlrNpJg1SzDH4QW/URgNYgZTkjA4UkwJUgGXng+6DX1zLfmoymdXo17xh5zmRJ6Q42BWCfc2oJfdAr+Yv+AP9Cb7OJ3H/2JG1HNGz/84klThPVCc=);strokeColor=none;strokeWidth=2;points=[];labelBackgroundColor=none;rounded=0;html=1;whiteSpace=wrap;" parent="1" vertex="1">
            <mxGeometry x="357" y="61" width="107" height="28" as="geometry" />
          </mxCell>
        </UserObject>
        <UserObject label="" tags="Connector" id="135">
          <mxCell style="vsdxID=125;edgeStyle=none;startArrow=none;endArrow=block;startSize=5;endSize=5;strokeWidth=3;strokeColor=#000000;spacingTop=0;spacingBottom=0;spacingLeft=0;spacingRight=0;verticalAlign=middle;html=1;labelBackgroundColor=#ffffff;rounded=0;" parent="1" edge="1">
            <mxGeometry relative="1" as="geometry">
              <mxPoint x="-1" as="offset" />
              <Array as="points" />
              <mxPoint x="686" y="503" as="sourcePoint" />
              <mxPoint x="992" y="501" as="targetPoint" />
            </mxGeometry>
          </mxCell>
        </UserObject>
        <UserObject label="" tags="Connector" id="136">
          <mxCell style="vsdxID=127;edgeStyle=none;startArrow=none;endArrow=block;startSize=5;endSize=5;strokeWidth=3;strokeColor=#000000;spacingTop=0;spacingBottom=0;spacingLeft=0;spacingRight=0;verticalAlign=middle;html=1;labelBackgroundColor=#ffffff;rounded=0;" parent="1" edge="1">
            <mxGeometry relative="1" as="geometry">
              <mxPoint x="12" as="offset" />
              <Array as="points" />
              <mxPoint x="686" y="503" as="sourcePoint" />
              <mxPoint x="687" y="255" as="targetPoint" />
            </mxGeometry>
          </mxCell>
        </UserObject>
        <UserObject label="" tags="Background" id="71">
          <mxCell style="vsdxID=128;fillColor=none;gradientColor=none;strokeColor=none;points=[];labelBackgroundColor=none;rounded=0;html=1;whiteSpace=wrap;" parent="1" vertex="1">
            <mxGeometry x="713" y="291" width="25" height="44" as="geometry" />
          </mxCell>
        </UserObject>
        <mxCell id="72" style="vsdxID=129;fillColor=#000000;gradientColor=none;fillOpacity=0;shape=stencil(vVfbUhs5EP0aP6JSq++PW0n2P1yJAdeymDJkQ/5+z6xnxkgOUPsQigfGklo6fdHpow1/erzdPuw2rT4+HQ9/7X7svz3dbvjzprX9/e3uuH/C14a/bPjT9eG4uzkevt9/O/1+2E4rp6+/D/9MOzyf7LLwZNPqz9NvqUX9v5E/T8vv9vcvlkcxGtd7vlz/9fvxtD/NC4oEi1qL1rjNtstcK+wuQo1UiGqV0/xzO823oq1RVFU2a4vxPClaqDI3Z4CgefKZF8ua8/J5RAKbnYHWP36BlYpl1ARcVhWplXq8ysDLLT0yOVoPlgoHk7unNk/qwaoXpsQwzLlqD5ZKsx6sRokcwPaJqMWsS4RZYXsrERWJiBBPd8Z/eKe9dzZFyEVrTTHN3rtaCLkIo4qge2TvnrcCw0bIsBr33tXeNZdi+k4ermqZ8muCHSsSnLUOleNRJKtHs0qZA1Yp7gGY4W5tqakFaiDaXgVWUS2GRKDgtIeL5f4e3KluhFORWJMxqmElg1oawmdOQ4FzSRVAmc72AWgWEquabYqB9UjZC/VAsyFD7wAVL2Eijm1pgJmCIpyKWnyq3qG2Ub5mxlSzEUePM7UEbILMzVBXPdDJ0gekk8E7SE2nkEZGWjDreBEzS1TCRHCAHJR7uE6o9YprXB1xGQoANANXEYJwbFwrD7fREdoxtlnG27g9fsWC43wbGQfOITvO95G8yJK0eRdU3oJlHkFtLKdfbZ/3j1fHw9P2aX+4767O3fZ4s7vCiVfXd9ubburxx273cDE8M0CPkRD2HmIUjw4hQtPjQ6Too/ChgNb4LAhBxGVN7owJN79vQSCfFh8WRXDows3nXFfJC5zIf3Q4TcqHwXQtdci2gMmoh4gO6h1E1bKS6W/HaOhhQ76Z0YE7jCZjGNkWRv4tGPs2Ox3fCyRA9PbSYKQukA+DJRVNPEWWRjlPMnwmTIDU8N8zfWAuJABEywKFYTYwbdPCklbTvGmbqGtgLisytC+KpS5f51qfuDYbK4mD43vAoG+wAtoD2jEzOlWP16CIItngsUI31bHb1sLoGqEGb6aNrHqPGbJsYc6ffJGOX+JFBgTxUchCklEYvH7gEsQpAxlQMkjA2qzb297yasv5/wMMM506DloL5MgQYCQV3Af1ZGokg5LBJESOWypkZQ6xRS1Ji9AKSoJeW+dXjUAlokeL0KkNaPuCz5XczgKf3xT4WSzw55qiTpRDxcNeICdJAqoLaclB4+ck5FB7UBCQ+EPFT68RBADaCYJFhkZ9frrwefUoLPrXDjre6NzcAl9xDu8d10mI4tqR6YVrnhV3GOvayklttVT4bY56Qr1lXnjmqEJNRfaguHJwDuaX3gUN3uH7/LC73t/dnd6Fqzv4GB+CGDo9IvnLvw==);strokeColor=none;strokeWidth=0;shadow=1;spacingTop=-3;spacingBottom=-3;spacingLeft=-3;spacingRight=-3;points=[];labelBackgroundColor=none;rounded=0;html=1;whiteSpace=wrap;" parent="71" vertex="1">
          <mxGeometry width="23" height="43" as="geometry" />
        </mxCell>
        <mxCell id="73" style="vsdxID=130;fillColor=#dcf1fa;gradientColor=#5b9bd5;shape=stencil(hZXLUhsxEEW/xktU/X4sU0D+gwomuEIwZSCBv08PM2MjJRXvZiS1dPr2bWnDl8/3N0/bDcHzy2H/Y/t7d/tyv+GrDdHu8X572L3U14avN3x5tz9svx/2r4+38//TzbRy+vq5/zXt8DbHYTOZggje5wGmhvox8nVe/+31MAfgGhFAyUmWwsyZucQv85RNNT1CmRxxnX6jZboRIgUCEJjyErtOcgMxIVRG8iWQ10DHZfUygtqAT6jw5R+0UhuSW4i424nm/VMyAgbgqgSZ7D0tWiOzShizkKOnvdCGRkmkEBkAC8yRWKEdE+QVB88AazaMUqa0QXUagaNZqEDBmAudjlx5QZpZpSQuGMWEg8DQwgU0tQpdpUrrkdMaS4/sBUQD9MPu8bOHADoLZbaQ/1koqVlqCE/Si/1VFIAmbI6KkRaOQ5JRupNHega5Z59hHW5OWMW08qYm9Qm6NI8+weSGeaYqH2FctnYSYu15pw0i2DAZkEV6WqMGziGJieA+0JZFqoxR9qqWUe1hJRoOng8vQ5+BZawTEUUqfTmWczVQ4YSJsjtDxtCcUZEigaV6oPSsHk2RLRLKnKuxVtSpUQZdrWwQZ1ArChQ41KIcUS00SFt7QEmrJa2xDM15AXUmuqOnVD+IZg7ymrTa1MM0qoOPV9UKDQ0GebUU9zPMdSpM+riaAEYdQD201r2EVVIg14wBGurCZYryA9cdScOVUhUHrdpVk1N1bxl4JF73O94o0mRUeWjPs1d8fZzeh7vdw8P8vHyeH9+TGprfIr7+Aw==);strokeColor=none;strokeWidth=0;spacingTop=-3;spacingBottom=-3;spacingLeft=-3;spacingRight=-3;points=[];labelBackgroundColor=none;rounded=0;html=1;whiteSpace=wrap;" parent="71" vertex="1">
          <mxGeometry x="1" y="17" width="18" height="26" as="geometry" />
        </mxCell>
        <mxCell id="74" style="vsdxID=131;fillColor=#f7f3e8;gradientColor=#a8dbf0;gradientDirection=east;shape=stencil(rVJJEoMgEHwNRykE17Mx/6AiKhUi1kii+X0waAXNcsptprtnaRjEiqHlvUCUDAb0WYyyMi1iB0Sp7FoB0tgIsRKxotYgGtDXrnJ5z2flHF30be4wubqUYJLNVZTcHRIS8syPTq5k58lXchWnMU5yX87hZFnwuseuANb2IcXxgi0qmuB8uwPBcbRIAj7JIQBtuJG6W2jHKQ6NCOzEoFa82VDDKET/Bn+0tDVEI5z9MJRkOGN7QwQnGz/f3/RfdkJ/Qxu8freWSrnj8Pn9NVjIXRIrHw==);strokeColor=none;strokeWidth=0;spacingTop=-3;spacingBottom=-3;spacingLeft=-3;spacingRight=-3;points=[];labelBackgroundColor=none;rounded=0;html=1;whiteSpace=wrap;" parent="71" vertex="1">
          <mxGeometry x="3" y="14" width="20" height="12" as="geometry" />
        </mxCell>
        <mxCell id="75" style="vsdxID=132;fillColor=#a8dbf0;gradientColor=#5b9bd5;shape=stencil(vZTBbsMgDIafhmMsMIHAueveA60kQctCRdK1e/uREW11Jk27NDdj/4ZP5peZPEy9O3uGfJpTfPXXcJp7Jp8YYhh7n8KcIyaPTB7amHyX4mU8lfPZLcoleovvyw230seXDuQf5SQaUOIr81zELr3kalrF2oA2pSGtHaihliW1ikwNaOmtIFZF5W5hqlKc3RziSAgGlzpf5feqdnAdKU1X78936T8IsZZgNog2pxRBtAIaiogcrNoLUtVcAerNIHljwVrKWYMRhFM2YHC3YWrFQUvKKbj4xSk4tVFjAHejVAJqtWG0YAhgkzWGIGZTfPv24YiLAzffLTUIpENEUBTRPtSTQxj/vwdy8LNB2jAMZQHd17cbJ6fKtpLHTw==);strokeColor=none;strokeWidth=0;spacingTop=-3;spacingBottom=-3;spacingLeft=-3;spacingRight=-3;points=[];labelBackgroundColor=none;rounded=0;html=1;whiteSpace=wrap;" parent="71" vertex="1">
          <mxGeometry x="17" y="23" width="7" height="19" as="geometry" />
        </mxCell>
        <mxCell id="76" style="vsdxID=133;fillColor=#5b9bd5;gradientColor=#4974ba;gradientDirection=east;shape=stencil(fVLZTsNADPyavK587eFHVMp/VDQlEaWp0hbK37PbDaQOiCgPPma8M5YbXp26zbFtCE7ncXhtP/rtuWv4sSHqD1079uccNbxueLUbxvZlHC6Hbc2Pm4Is0dvwXiZcK4+cSCERfNYCiitp/p8qft8fDD5ZvPcODf75MtYHcGaIeiBkjgiqaeLj3QBkRIlesPauVHswQac0RkdMMYWUPEmEbzTXtohLOjGmkqLDMKuDhz8E3mjMKBzCL3W3ARC8jxwjeLL6lF2WkVgpACNbtQjg4O6LVm1uW63FHS202uWrOh/N9uG/zRd4CCgelCSgNQbWSchLiApJA3pltE5yM978i2ICWWzdQbBGkNxy5zmeL3DX7/f1gH+k52B5sblUr53XXw==);strokeColor=none;strokeWidth=0;spacingTop=-3;spacingBottom=-3;spacingLeft=-3;spacingRight=-3;points=[];labelBackgroundColor=none;rounded=0;html=1;whiteSpace=wrap;" parent="71" vertex="1">
          <mxGeometry x="8" y="14" width="7" height="4" as="geometry" />
        </mxCell>
        <mxCell id="77" style="vsdxID=134;fillColor=#FFFFFF;gradientColor=#da8c36;shape=stencil(lZPBbsIwDIafpsdFju3E8XFi7D3QKKMao6iUjb39WpIyUpWi9VDF8e/6s2sXtDhuV4eyQDi2Tf1RflfrdlvQS4FY7bdlU7XdqaBlQYtN3ZTvTX3ar6N9WPXK/vRZf/VfOMc4C9DHIPxE24FButy8RvnbqYl6GwUajBMPwiGwSopNvgBGUawEJWH10XnG6BRvBJwjAXaBWTXF4hXEwM2DKZoGriSnnPtCCc8ToEgGldmjOrZMOem9bAkGDENw5LwVdRQQgHPa6UoT2wh11NJJ2PsJh2rAeCJxoGht99YceLrYazVBRQC7OPZeVcJ8bx919t6ftA/S4cwE4XyZNJ7Wmd7uqv1/Bjzfhyd0mXywk7g7/G3Sptrt4iLe+seb113FraXlLw==);strokeColor=#996633;strokeWidth=0;spacingTop=-3;spacingBottom=-3;spacingLeft=-3;spacingRight=-3;points=[];labelBackgroundColor=none;rounded=0;html=1;whiteSpace=wrap;" parent="71" vertex="1">
          <mxGeometry x="5" width="13" height="15" as="geometry" />
        </mxCell>
        <mxCell id="78" style="vsdxID=135;fillColor=none;gradientColor=none;shape=stencil(nZFLDoMwDERP4y0KtoTYU3oPJEJjNU1QSH+3b4KFCqhdtLsZ53lkTYCayXSjBlRTDP6s79xHA3QARHZGB45JAbVAzeCDPgV/db34sctkVhd/ywkP2VN5A9VTXFUWFc6To8CW3VdYrcGfUrdwqbb44j+esIepLqj+OzuJdzEDWyu9rt/3RaaRfAK1Lw==);strokeColor=#1e4182;strokeWidth=0;spacingTop=-3;spacingBottom=-3;spacingLeft=-3;spacingRight=-3;points=[];labelBackgroundColor=none;rounded=0;html=1;whiteSpace=wrap;" parent="71" vertex="1">
          <mxGeometry x="4" y="25" width="10" height="15" as="geometry" />
        </mxCell>
        <mxCell id="79" style="vsdxID=136;fillColor=none;gradientColor=none;shape=stencil(lZbbcttGDIafRpfdARbny06SvkemcWpNXTujOG3y9v1piaJ2rVjt2GPRWoL8APw47OTd1/uPX+52nb4+H57+vPtn/+n5fifvd73vH+/vDvtnXO3kw07efX463P1xePr2+On4/5ePy53L1V9Pfy9P+H60S29ii1WnH8dvKpv2l29+Oxr8/u1wtODjDUzcJDhEIthW49NhabNQTTdlTeLj6fd+Oq1WrpVM0jvpevxjPaYGIsMb1KWU6mQtF9YnC9ksZIOlX6/wwswzOL2DzPrImwzedJLCD+sr4Gji1d3d8NFnYJdWeGgGZYXOuNFIR1znVrdorbF6Uaol/o60Ro0KgWXEvzJH1qQmVYLAmWf2kVR7qyBhjxSCv2QjbFjLCVapRd6gjQ6gTGHLgMMjrSTeqWRGUc420no2g0aCEBR1HWklmoG0I+ipxVU60ro2n2jFW/JE+7B/vJA6jHTN38lGWvhbUg/kKxBL7apOk9Q75FgENQvDm9ogT06Eo5DElBy/MnnY4QGjQmzRpBCtmT7nw9cqPHvIiNgtrV9/56r1hhd1FmRL3WjWOsScUAdaAvdE8Z1r7XROI6HmFk65vOPndAIRiiv44EzKSEcjTV/ULKoWBvIaUX7miVzY/v/gXX8lbwkrTnKoRnIKHQ7R11LQJWzTySpmaiyoAYNUvPcRVfhVT4Mq7W0lZ/NVG+dSvajU157BgIO93BlK89Gzpc7Lccyp0mlrDatzLXoU2rV493ONb33FWJjQYTNPEd7y0CaB6JUsjK6hwY01Goh7vOXbYtHRDdHh0TxfyerFHuLGXCMTDIPRuV8wQIDO5ZKLg6N3ERhIggZnaAVz6pbWN7oX+R86Jtq7hCIfFl2jJpnlqaGqe/LqywrLHYPXOEJC0iZWTDJXdjwTs9OmioClTTLD/RE3YDu2g5c2LFGmqLmpoxSmJ3SzzFiMYptwoQ1M80RonTBcaS6MkoZqK6gKLgvFiGzR3EZkzMZb49OWmZO05NRR9HN4yxtzLFotgWJiBMZM4mVvwUZg2af4Ymdp5OjyGM2A9UkNl4vUijtuUtcK+fb2hYttd/u8f3g4rn6X5/Ouh6+Oe6J8+Bc=);strokeColor=#c8c8c8;spacingTop=-3;spacingBottom=-3;spacingLeft=-3;spacingRight=-3;points=[];labelBackgroundColor=none;rounded=0;html=1;whiteSpace=wrap;" parent="71" vertex="1">
          <mxGeometry x="1" width="23" height="43" as="geometry" />
        </mxCell>
        <mxCell id="80" value="&lt;div style=&quot;font-size: 1px&quot;&gt;&lt;font style=&quot;font-size:16.93px;font-family:Times New Roman;color:#000000;direction:ltr;letter-spacing:0px;line-height:120%;opacity:1&quot;&gt;CD&lt;br/&gt;&lt;/font&gt;&lt;/div&gt;" style="text;vsdxID=128;fillColor=none;gradientColor=none;strokeColor=none;points=[];labelBackgroundColor=none;rounded=0;html=1;whiteSpace=wrap;verticalAlign=middle;align=center;overflow=width;;html=1;" parent="71" vertex="1">
          <mxGeometry x="-6.83" y="44" width="39.05" height="31.61" as="geometry" />
        </mxCell>
        <UserObject label="" tags="Background" id="81">
          <mxCell style="vsdxID=137;fillColor=none;gradientColor=none;strokeColor=none;points=[];labelBackgroundColor=none;rounded=0;html=1;whiteSpace=wrap;" parent="1" vertex="1">
            <mxGeometry x="797" y="359" width="25" height="44" as="geometry" />
          </mxCell>
        </UserObject>
        <mxCell id="82" style="vsdxID=138;fillColor=#000000;gradientColor=none;fillOpacity=0;shape=stencil(vVfbUhs5EP0aP6JSq++PW0n2P1yJAdeymDJkQ/5+z6xnxkgOUPsQigfGklo6fdHpow1/erzdPuw2rT4+HQ9/7X7svz3dbvjzprX9/e3uuH/C14a/bPjT9eG4uzkevt9/O/1+2E4rp6+/D/9MOzyf7LLwZNPqz9NvqUX9v5E/T8vv9vcvlkcxGtd7vlz/9fvxtD/NC4oEi1qL1rjNtstcK+wuQo1UiGqV0/xzO823oq1RVFU2a4vxPClaqDI3Z4CgefKZF8ua8/J5RAKbnYHWP36BlYpl1ARcVhWplXq8ysDLLT0yOVoPlgoHk7unNk/qwaoXpsQwzLlqD5ZKsx6sRokcwPaJqMWsS4RZYXsrERWJiBBPd8Z/eKe9dzZFyEVrTTHN3rtaCLkIo4qge2TvnrcCw0bIsBr33tXeNZdi+k4ermqZ8muCHSsSnLUOleNRJKtHs0qZA1Yp7gGY4W5tqakFaiDaXgVWUS2GRKDgtIeL5f4e3KluhFORWJMxqmElg1oawmdOQ4FzSRVAmc72AWgWEquabYqB9UjZC/VAsyFD7wAVL2Eijm1pgJmCIpyKWnyq3qG2Ub5mxlSzEUePM7UEbILMzVBXPdDJ0gekk8E7SE2nkEZGWjDreBEzS1TCRHCAHJR7uE6o9YprXB1xGQoANANXEYJwbFwrD7fREdoxtlnG27g9fsWC43wbGQfOITvO95G8yJK0eRdU3oJlHkFtLKdfbZ/3j1fHw9P2aX+4767O3fZ4s7vCiVfXd9ubburxx273cDE8M0CPkRD2HmIUjw4hQtPjQ6Too/ChgNb4LAhBxGVN7owJN79vQSCfFh8WRXDows3nXFfJC5zIf3Q4TcqHwXQtdci2gMmoh4gO6h1E1bKS6W/HaOhhQ76Z0YE7jCZjGNkWRv4tGPs2Ox3fCyRA9PbSYKQukA+DJRVNPEWWRjlPMnwmTIDU8N8zfWAuJABEywKFYTYwbdPCklbTvGmbqGtgLisytC+KpS5f51qfuDYbK4mD43vAoG+wAtoD2jEzOlWP16CIItngsUI31bHb1sLoGqEGb6aNrHqPGbJsYc6ffJGOX+JFBgTxUchCklEYvH7gEsQpAxlQMkjA2qzb297yasv5/wMMM506DloL5MgQYCQV3Af1ZGokg5LBJESOWypkZQ6xRS1Ji9AKSoJeW+dXjUAlokeL0KkNaPuCz5XczgKf3xT4WSzw55qiTpRDxcNeICdJAqoLaclB4+ck5FB7UBCQ+EPFT68RBADaCYJFhkZ9frrwefUoLPrXDjre6NzcAl9xDu8d10mI4tqR6YVrnhV3GOvayklttVT4bY56Qr1lXnjmqEJNRfaguHJwDuaX3gUN3uH7/LC73t/dnd6Fqzv4GB+CGDo9IvnLvw==);strokeColor=none;strokeWidth=0;shadow=1;spacingTop=-3;spacingBottom=-3;spacingLeft=-3;spacingRight=-3;points=[];labelBackgroundColor=none;rounded=0;html=1;whiteSpace=wrap;" parent="81" vertex="1">
          <mxGeometry width="23" height="43" as="geometry" />
        </mxCell>
        <mxCell id="83" style="vsdxID=139;fillColor=#dcf1fa;gradientColor=#5b9bd5;shape=stencil(hZXLUhsxEEW/xktU/X4sU0D+gwomuEIwZSCBv08PM2MjJRXvZiS1dPr2bWnDl8/3N0/bDcHzy2H/Y/t7d/tyv+GrDdHu8X572L3U14avN3x5tz9svx/2r4+38//TzbRy+vq5/zXt8DbHYTOZggje5wGmhvox8nVe/+31MAfgGhFAyUmWwsyZucQv85RNNT1CmRxxnX6jZboRIgUCEJjyErtOcgMxIVRG8iWQ10DHZfUygtqAT6jw5R+0UhuSW4i424nm/VMyAgbgqgSZ7D0tWiOzShizkKOnvdCGRkmkEBkAC8yRWKEdE+QVB88AazaMUqa0QXUagaNZqEDBmAudjlx5QZpZpSQuGMWEg8DQwgU0tQpdpUrrkdMaS4/sBUQD9MPu8bOHADoLZbaQ/1koqVlqCE/Si/1VFIAmbI6KkRaOQ5JRupNHega5Z59hHW5OWMW08qYm9Qm6NI8+weSGeaYqH2FctnYSYu15pw0i2DAZkEV6WqMGziGJieA+0JZFqoxR9qqWUe1hJRoOng8vQ5+BZawTEUUqfTmWczVQ4YSJsjtDxtCcUZEigaV6oPSsHk2RLRLKnKuxVtSpUQZdrWwQZ1ArChQ41KIcUS00SFt7QEmrJa2xDM15AXUmuqOnVD+IZg7ymrTa1MM0qoOPV9UKDQ0GebUU9zPMdSpM+riaAEYdQD201r2EVVIg14wBGurCZYryA9cdScOVUhUHrdpVk1N1bxl4JF73O94o0mRUeWjPs1d8fZzeh7vdw8P8vHyeH9+TGprfIr7+Aw==);strokeColor=none;strokeWidth=0;spacingTop=-3;spacingBottom=-3;spacingLeft=-3;spacingRight=-3;points=[];labelBackgroundColor=none;rounded=0;html=1;whiteSpace=wrap;" parent="81" vertex="1">
          <mxGeometry x="1" y="17" width="18" height="26" as="geometry" />
        </mxCell>
        <mxCell id="84" style="vsdxID=140;fillColor=#f7f3e8;gradientColor=#a8dbf0;gradientDirection=east;shape=stencil(rVJJEoMgEHwNRykE17Mx/6AiKhUi1kii+X0waAXNcsptprtnaRjEiqHlvUCUDAb0WYyyMi1iB0Sp7FoB0tgIsRKxotYgGtDXrnJ5z2flHF30be4wubqUYJLNVZTcHRIS8syPTq5k58lXchWnMU5yX87hZFnwuseuANb2IcXxgi0qmuB8uwPBcbRIAj7JIQBtuJG6W2jHKQ6NCOzEoFa82VDDKET/Bn+0tDVEI5z9MJRkOGN7QwQnGz/f3/RfdkJ/Qxu8freWSrnj8Pn9NVjIXRIrHw==);strokeColor=none;strokeWidth=0;spacingTop=-3;spacingBottom=-3;spacingLeft=-3;spacingRight=-3;points=[];labelBackgroundColor=none;rounded=0;html=1;whiteSpace=wrap;" parent="81" vertex="1">
          <mxGeometry x="3" y="14" width="20" height="12" as="geometry" />
        </mxCell>
        <mxCell id="85" style="vsdxID=141;fillColor=#a8dbf0;gradientColor=#5b9bd5;shape=stencil(vZTBbsMgDIafhmMsMIHAueveA60kQctCRdK1e/uREW11Jk27NDdj/4ZP5peZPEy9O3uGfJpTfPXXcJp7Jp8YYhh7n8KcIyaPTB7amHyX4mU8lfPZLcoleovvyw230seXDuQf5SQaUOIr81zELr3kalrF2oA2pSGtHaihliW1ikwNaOmtIFZF5W5hqlKc3RziSAgGlzpf5feqdnAdKU1X78936T8IsZZgNog2pxRBtAIaiogcrNoLUtVcAerNIHljwVrKWYMRhFM2YHC3YWrFQUvKKbj4xSk4tVFjAHejVAJqtWG0YAhgkzWGIGZTfPv24YiLAzffLTUIpENEUBTRPtSTQxj/vwdy8LNB2jAMZQHd17cbJ6fKtpLHTw==);strokeColor=none;strokeWidth=0;spacingTop=-3;spacingBottom=-3;spacingLeft=-3;spacingRight=-3;points=[];labelBackgroundColor=none;rounded=0;html=1;whiteSpace=wrap;" parent="81" vertex="1">
          <mxGeometry x="17" y="23" width="7" height="19" as="geometry" />
        </mxCell>
        <mxCell id="86" style="vsdxID=142;fillColor=#5b9bd5;gradientColor=#4974ba;gradientDirection=east;shape=stencil(fVLZTsNADPyavK587eFHVMp/VDQlEaWp0hbK37PbDaQOiCgPPma8M5YbXp26zbFtCE7ncXhtP/rtuWv4sSHqD1079uccNbxueLUbxvZlHC6Hbc2Pm4Is0dvwXiZcK4+cSCERfNYCiitp/p8qft8fDD5ZvPcODf75MtYHcGaIeiBkjgiqaeLj3QBkRIlesPauVHswQac0RkdMMYWUPEmEbzTXtohLOjGmkqLDMKuDhz8E3mjMKBzCL3W3ARC8jxwjeLL6lF2WkVgpACNbtQjg4O6LVm1uW63FHS202uWrOh/N9uG/zRd4CCgelCSgNQbWSchLiApJA3pltE5yM978i2ICWWzdQbBGkNxy5zmeL3DX7/f1gH+k52B5sblUr53XXw==);strokeColor=none;strokeWidth=0;spacingTop=-3;spacingBottom=-3;spacingLeft=-3;spacingRight=-3;points=[];labelBackgroundColor=none;rounded=0;html=1;whiteSpace=wrap;" parent="81" vertex="1">
          <mxGeometry x="8" y="14" width="7" height="4" as="geometry" />
        </mxCell>
        <mxCell id="87" style="vsdxID=143;fillColor=#FFFFFF;gradientColor=#da8c36;shape=stencil(lZPBbsIwDIafpsdFju3E8XFi7D3QKKMao6iUjb39WpIyUpWi9VDF8e/6s2sXtDhuV4eyQDi2Tf1RflfrdlvQS4FY7bdlU7XdqaBlQYtN3ZTvTX3ar6N9WPXK/vRZf/VfOMc4C9DHIPxE24FButy8RvnbqYl6GwUajBMPwiGwSopNvgBGUawEJWH10XnG6BRvBJwjAXaBWTXF4hXEwM2DKZoGriSnnPtCCc8ToEgGldmjOrZMOem9bAkGDENw5LwVdRQQgHPa6UoT2wh11NJJ2PsJh2rAeCJxoGht99YceLrYazVBRQC7OPZeVcJ8bx919t6ftA/S4cwE4XyZNJ7Wmd7uqv1/Bjzfhyd0mXywk7g7/G3Sptrt4iLe+seb113FraXlLw==);strokeColor=#996633;strokeWidth=0;spacingTop=-3;spacingBottom=-3;spacingLeft=-3;spacingRight=-3;points=[];labelBackgroundColor=none;rounded=0;html=1;whiteSpace=wrap;" parent="81" vertex="1">
          <mxGeometry x="5" width="13" height="15" as="geometry" />
        </mxCell>
        <mxCell id="88" style="vsdxID=144;fillColor=none;gradientColor=none;shape=stencil(nZFLDoMwDERP4y0KtoTYU3oPJEJjNU1QSH+3b4KFCqhdtLsZ53lkTYCayXSjBlRTDP6s79xHA3QARHZGB45JAbVAzeCDPgV/db34sctkVhd/ywkP2VN5A9VTXFUWFc6To8CW3VdYrcGfUrdwqbb44j+esIepLqj+OzuJdzEDWyu9rt/3RaaRfAK1Lw==);strokeColor=#1e4182;strokeWidth=0;spacingTop=-3;spacingBottom=-3;spacingLeft=-3;spacingRight=-3;points=[];labelBackgroundColor=none;rounded=0;html=1;whiteSpace=wrap;" parent="81" vertex="1">
          <mxGeometry x="4" y="25" width="10" height="15" as="geometry" />
        </mxCell>
        <mxCell id="89" style="vsdxID=145;fillColor=none;gradientColor=none;shape=stencil(lZbbcttGDIafRpfdARbny06SvkemcWpNXTujOG3y9v1piaJ2rVjt2GPRWoL8APw47OTd1/uPX+52nb4+H57+vPtn/+n5fifvd73vH+/vDvtnXO3kw07efX463P1xePr2+On4/5ePy53L1V9Pfy9P+H60S29ii1WnH8dvKpv2l29+Oxr8/u1wtODjDUzcJDhEIthW49NhabNQTTdlTeLj6fd+Oq1WrpVM0jvpevxjPaYGIsMb1KWU6mQtF9YnC9ksZIOlX6/wwswzOL2DzPrImwzedJLCD+sr4Gji1d3d8NFnYJdWeGgGZYXOuNFIR1znVrdorbF6Uaol/o60Ro0KgWXEvzJH1qQmVYLAmWf2kVR7qyBhjxSCv2QjbFjLCVapRd6gjQ6gTGHLgMMjrSTeqWRGUc420no2g0aCEBR1HWklmoG0I+ipxVU60ro2n2jFW/JE+7B/vJA6jHTN38lGWvhbUg/kKxBL7apOk9Q75FgENQvDm9ogT06Eo5DElBy/MnnY4QGjQmzRpBCtmT7nw9cqPHvIiNgtrV9/56r1hhd1FmRL3WjWOsScUAdaAvdE8Z1r7XROI6HmFk65vOPndAIRiiv44EzKSEcjTV/ULKoWBvIaUX7miVzY/v/gXX8lbwkrTnKoRnIKHQ7R11LQJWzTySpmaiyoAYNUvPcRVfhVT4Mq7W0lZ/NVG+dSvajU157BgIO93BlK89Gzpc7Lccyp0mlrDatzLXoU2rV493ONb33FWJjQYTNPEd7y0CaB6JUsjK6hwY01Goh7vOXbYtHRDdHh0TxfyerFHuLGXCMTDIPRuV8wQIDO5ZKLg6N3ERhIggZnaAVz6pbWN7oX+R86Jtq7hCIfFl2jJpnlqaGqe/LqywrLHYPXOEJC0iZWTDJXdjwTs9OmioClTTLD/RE3YDu2g5c2LFGmqLmpoxSmJ3SzzFiMYptwoQ1M80RonTBcaS6MkoZqK6gKLgvFiGzR3EZkzMZb49OWmZO05NRR9HN4yxtzLFotgWJiBMZM4mVvwUZg2af4Ymdp5OjyGM2A9UkNl4vUijtuUtcK+fb2hYttd/u8f3g4rn6X5/Ouh6+Oe6J8+Bc=);strokeColor=#c8c8c8;spacingTop=-3;spacingBottom=-3;spacingLeft=-3;spacingRight=-3;points=[];labelBackgroundColor=none;rounded=0;html=1;whiteSpace=wrap;" parent="81" vertex="1">
          <mxGeometry x="1" width="23" height="43" as="geometry" />
        </mxCell>
        <mxCell id="90" value="&lt;div style=&quot;font-size: 1px&quot;&gt;&lt;font style=&quot;font-size:16.93px;font-family:Times New Roman;color:#000000;direction:ltr;letter-spacing:0px;line-height:120%;opacity:1&quot;&gt;RM&lt;br/&gt;&lt;/font&gt;&lt;/div&gt;" style="text;vsdxID=137;fillColor=none;gradientColor=none;strokeColor=none;points=[];labelBackgroundColor=none;rounded=0;html=1;whiteSpace=wrap;verticalAlign=middle;align=center;overflow=width;;html=1;" parent="81" vertex="1">
          <mxGeometry x="-8.24" y="44" width="41.88" height="31.61" as="geometry" />
        </mxCell>
        <UserObject label="&lt;div style=&quot;&quot;&gt;&lt;font style=&quot;font-family: &amp;quot;Times New Roman&amp;quot;; color: rgb(0, 0, 0); direction: ltr; letter-spacing: 0px; line-height: 120%; opacity: 1;&quot;&gt;&lt;font style=&quot;font-size: 18px;&quot;&gt;Domain Expertise&lt;/font&gt;&lt;br&gt;&lt;/font&gt;&lt;/div&gt;" tags="Background" id="113">
          <mxCell style="verticalAlign=middle;align=center;overflow=width;vsdxID=167;fillColor=none;gradientColor=none;shape=stencil(nZBLDoAgDERP0z3SIyjew0SURgSD+Lu9kMZoXLhwN9O+tukAlrNpJg1SzDH4QW/URgNYgZTkjA4UkwJUgGXng+6DX1zLfmoymdXo17xh5zmRJ6Q42BWCfc2oJfdAr+Yv+AP9Cb7OJ3H/2JG1HNGz/84klThPVCc=);strokeColor=none;strokeWidth=2;points=[];labelBackgroundColor=none;rounded=0;html=1;whiteSpace=wrap;" parent="1" vertex="1">
            <mxGeometry x="973" y="480" width="107" height="41" as="geometry" />
          </mxCell>
        </UserObject>
        <UserObject label="&lt;div style=&quot;&quot;&gt;&lt;font style=&quot;font-family: &amp;quot;Times New Roman&amp;quot;; color: rgb(0, 0, 0); direction: ltr; letter-spacing: 0px; line-height: 120%; opacity: 1;&quot;&gt;&lt;font style=&quot;font-size: 18px;&quot;&gt;Programming Skills&lt;/font&gt;&lt;br&gt;&lt;/font&gt;&lt;/div&gt;" tags="Background" id="114">
          <mxCell style="verticalAlign=middle;align=center;overflow=width;vsdxID=169;fillColor=none;gradientColor=none;shape=stencil(nZBLDoAgDERP0z3SIyjew0SURgSD+Lu9kMZoXLhwN9O+tukAlrNpJg1SzDH4QW/URgNYgZTkjA4UkwJUgGXng+6DX1zLfmoymdXo17xh5zmRJ6Q42BWCfc2oJfdAr+Yv+AP9Cb7OJ3H/2JG1HNGz/84klThPVCc=);strokeColor=none;strokeWidth=2;points=[];labelBackgroundColor=none;rounded=0;html=1;whiteSpace=wrap;" parent="1" vertex="1">
            <mxGeometry x="636" y="200" width="107" height="45" as="geometry" />
          </mxCell>
        </UserObject>
        <UserObject label="&lt;div style=&quot;&quot;&gt;&lt;font style=&quot;font-family: &amp;quot;Times New Roman&amp;quot;; color: rgb(60, 102, 140); direction: ltr; letter-spacing: 0px; line-height: 120%; opacity: 1;&quot;&gt;&lt;font style=&quot;font-size: 18px;&quot;&gt;No&lt;/font&gt;&lt;br&gt;&lt;/font&gt;&lt;/div&gt;" tags="Background" id="115">
          <mxCell style="verticalAlign=middle;align=center;overflow=width;vsdxID=170;fillColor=none;gradientColor=none;shape=stencil(nZBLDoAgDERP0z3SIyjew0SURgSD+Lu9kMZoXLhwN9O+tukAlrNpJg1SzDH4QW/URgNYgZTkjA4UkwJUgGXng+6DX1zLfmoymdXo17xh5zmRJ6Q42BWCfc2oJfdAr+Yv+AP9Cb7OJ3H/2JG1HNGz/84klThPVCc=);strokeColor=none;strokeWidth=2;points=[];labelBackgroundColor=none;rounded=0;html=1;whiteSpace=wrap;" parent="1" vertex="1">
            <mxGeometry x="700" y="509" width="38" height="28" as="geometry" />
          </mxCell>
        </UserObject>
        <UserObject label="&lt;div style=&quot;&quot;&gt;&lt;font style=&quot;font-family: &amp;quot;Times New Roman&amp;quot;; color: rgb(60, 102, 140); direction: ltr; letter-spacing: 0px; line-height: 120%; opacity: 1;&quot;&gt;&lt;font style=&quot;font-size: 18px;&quot;&gt;average&lt;/font&gt;&lt;br&gt;&lt;/font&gt;&lt;/div&gt;" tags="Background" id="116">
          <mxCell style="verticalAlign=middle;align=center;overflow=width;vsdxID=171;fillColor=none;gradientColor=none;shape=stencil(nZBLDoAgDERP0z3SIyjew0SURgSD+Lu9kMZoXLhwN9O+tukAlrNpJg1SzDH4QW/URgNYgZTkjA4UkwJUgGXng+6DX1zLfmoymdXo17xh5zmRJ6Q42BWCfc2oJfdAr+Yv+AP9Cb7OJ3H/2JG1HNGz/84klThPVCc=);strokeColor=none;strokeWidth=2;points=[];labelBackgroundColor=none;rounded=0;html=1;whiteSpace=wrap;" parent="1" vertex="1">
            <mxGeometry x="776" y="508" width="82" height="28" as="geometry" />
          </mxCell>
        </UserObject>
        <UserObject label="&lt;div style=&quot;font-size: 1px&quot;&gt;&lt;font style=&quot;font-size:16.93px;font-family:Times New Roman;color:#3c668c;direction:ltr;letter-spacing:0px;line-height:120%;opacity:1&quot;&gt;strong&lt;br/&gt;&lt;/font&gt;&lt;/div&gt;" tags="Background" id="117">
          <mxCell style="verticalAlign=middle;align=center;overflow=width;vsdxID=172;fillColor=none;gradientColor=none;shape=stencil(nZBLDoAgDERP0z3SIyjew0SURgSD+Lu9kMZoXLhwN9O+tukAlrNpJg1SzDH4QW/URgNYgZTkjA4UkwJUgGXng+6DX1zLfmoymdXo17xh5zmRJ6Q42BWCfc2oJfdAr+Yv+AP9Cb7OJ3H/2JG1HNGz/84klThPVCc=);strokeColor=none;strokeWidth=2;points=[];labelBackgroundColor=none;rounded=0;html=1;whiteSpace=wrap;" parent="1" vertex="1">
            <mxGeometry x="884" y="508" width="63" height="28" as="geometry" />
          </mxCell>
        </UserObject>
        <UserObject label="&lt;div style=&quot;&quot;&gt;&lt;font style=&quot;font-family: &amp;quot;Times New Roman&amp;quot;; color: rgb(60, 102, 140); direction: ltr; letter-spacing: 0px; line-height: 120%; opacity: 1;&quot;&gt;&lt;font style=&quot;font-size: 18px;&quot;&gt;No&lt;/font&gt;&lt;br&gt;&lt;/font&gt;&lt;/div&gt;" tags="Background" id="118">
          <mxCell style="verticalAlign=middle;align=center;overflow=width;vsdxID=173;fillColor=none;gradientColor=none;shape=stencil(nZBLDoAgDERP0z3SIyjew0SURgSD+Lu9kMZoXLhwN9O+tukAlrNpJg1SzDH4QW/URgNYgZTkjA4UkwJUgGXng+6DX1zLfmoymdXo17xh5zmRJ6Q42BWCfc2oJfdAr+Yv+AP9Cb7OJ3H/2JG1HNGz/84klThPVCc=);strokeColor=none;strokeWidth=2;points=[];labelBackgroundColor=none;rounded=0;html=1;whiteSpace=wrap;" parent="1" vertex="1">
            <mxGeometry x="637" y="460" width="38" height="28" as="geometry" />
          </mxCell>
        </UserObject>
        <UserObject label="&lt;div style=&quot;&quot;&gt;&lt;font style=&quot;font-family: &amp;quot;Times New Roman&amp;quot;; color: rgb(60, 102, 140); direction: ltr; letter-spacing: 0px; line-height: 120%; opacity: 1;&quot;&gt;&lt;font style=&quot;font-size: 18px;&quot;&gt;average&lt;/font&gt;&lt;br&gt;&lt;/font&gt;&lt;/div&gt;" tags="Background" id="119">
          <mxCell style="verticalAlign=middle;align=center;overflow=width;vsdxID=174;fillColor=none;gradientColor=none;shape=stencil(nZBLDoAgDERP0z3SIyjew0SURgSD+Lu9kMZoXLhwN9O+tukAlrNpJg1SzDH4QW/URgNYgZTkjA4UkwJUgGXng+6DX1zLfmoymdXo17xh5zmRJ6Q42BWCfc2oJfdAr+Yv+AP9Cb7OJ3H/2JG1HNGz/84klThPVCc=);strokeColor=none;strokeWidth=2;points=[];labelBackgroundColor=none;rounded=0;html=1;whiteSpace=wrap;" parent="1" vertex="1">
            <mxGeometry x="599" y="379" width="82" height="28" as="geometry" />
          </mxCell>
        </UserObject>
        <UserObject label="&lt;div style=&quot;&quot;&gt;&lt;font style=&quot;font-family: &amp;quot;Times New Roman&amp;quot;; color: rgb(60, 102, 140); direction: ltr; letter-spacing: 0px; line-height: 120%; opacity: 1;&quot;&gt;&lt;font style=&quot;font-size: 18px;&quot;&gt;strong&lt;/font&gt;&lt;br&gt;&lt;/font&gt;&lt;/div&gt;" tags="Background" id="120">
          <mxCell style="verticalAlign=middle;align=center;overflow=width;vsdxID=175;fillColor=none;gradientColor=none;shape=stencil(nZBLDoAgDERP0z3SIyjew0SURgSD+Lu9kMZoXLhwN9O+tukAlrNpJg1SzDH4QW/URgNYgZTkjA4UkwJUgGXng+6DX1zLfmoymdXo17xh5zmRJ6Q42BWCfc2oJfdAr+Yv+AP9Cb7OJ3H/2JG1HNGz/84klThPVCc=);strokeColor=none;strokeWidth=2;points=[];labelBackgroundColor=none;rounded=0;html=1;whiteSpace=wrap;" parent="1" vertex="1">
            <mxGeometry x="618" y="299" width="63" height="28" as="geometry" />
          </mxCell>
        </UserObject>
        <UserObject label="" tags="Connector" id="137">
          <mxCell style="vsdxID=176;edgeStyle=none;dashed=1;startArrow=none;endArrow=none;startSize=5;endSize=5;strokeColor=#000000;spacingTop=0;spacingBottom=0;spacingLeft=0;spacingRight=0;verticalAlign=middle;html=1;labelBackgroundColor=#ffffff;rounded=0;" parent="1" edge="1">
            <mxGeometry relative="1" as="geometry">
              <mxPoint x="-1" as="offset" />
              <Array as="points">
                <mxPoint x="847.64" y="428" />
                <mxPoint x="941.92" y="428" />
              </Array>
              <mxPoint x="686" y="428" as="sourcePoint" />
              <mxPoint x="972" y="428" as="targetPoint" />
            </mxGeometry>
          </mxCell>
        </UserObject>
        <UserObject label="" tags="Connector" id="138">
          <mxCell style="vsdxID=177;edgeStyle=none;dashed=1;startArrow=none;endArrow=none;startSize=5;endSize=5;strokeColor=#000000;spacingTop=0;spacingBottom=0;spacingLeft=0;spacingRight=0;verticalAlign=middle;html=1;labelBackgroundColor=#ffffff;rounded=0;" parent="1" edge="1">
            <mxGeometry relative="1" as="geometry">
              <mxPoint x="-1" as="offset" />
              <Array as="points">
                <mxPoint x="847.27" y="357" />
                <mxPoint x="941.55" y="357" />
              </Array>
              <mxPoint x="686" y="357" as="sourcePoint" />
              <mxPoint x="972" y="357" as="targetPoint" />
            </mxGeometry>
          </mxCell>
        </UserObject>
        <UserObject label="" tags="Connector" id="139">
          <mxCell style="vsdxID=178;edgeStyle=none;dashed=1;startArrow=none;endArrow=none;startSize=5;endSize=5;strokeColor=#000000;spacingTop=0;spacingBottom=0;spacingLeft=0;spacingRight=0;verticalAlign=middle;html=1;labelBackgroundColor=#ffffff;rounded=0;" parent="1" edge="1">
            <mxGeometry relative="1" as="geometry">
              <mxPoint x="-1" as="offset" />
              <Array as="points">
                <mxPoint x="846.88" y="280" />
                <mxPoint x="941.15" y="280" />
              </Array>
              <mxPoint x="686" y="280" as="sourcePoint" />
              <mxPoint x="972" y="280" as="targetPoint" />
            </mxGeometry>
          </mxCell>
        </UserObject>
        <UserObject label="" tags="Connector" id="140">
          <mxCell style="vsdxID=180;edgeStyle=none;dashed=1;startArrow=none;endArrow=none;startSize=5;endSize=5;strokeColor=#000000;spacingTop=0;spacingBottom=0;spacingLeft=0;spacingRight=0;verticalAlign=middle;html=1;labelBackgroundColor=#ffffff;rounded=1;" parent="1" edge="1">
            <mxGeometry relative="1" as="geometry">
              <mxPoint x="-13" as="offset" />
              <Array as="points" />
              <mxPoint x="853" y="502" as="sourcePoint" />
              <mxPoint x="851" y="254" as="targetPoint" />
            </mxGeometry>
          </mxCell>
        </UserObject>
        <UserObject label="" tags="Connector" id="141">
          <mxCell style="vsdxID=181;edgeStyle=none;dashed=1;startArrow=none;endArrow=none;startSize=5;endSize=5;strokeColor=#000000;spacingTop=0;spacingBottom=0;spacingLeft=0;spacingRight=0;verticalAlign=middle;html=1;labelBackgroundColor=#ffffff;rounded=1;" parent="1" edge="1">
            <mxGeometry relative="1" as="geometry">
              <mxPoint x="-13" as="offset" />
              <Array as="points" />
              <mxPoint x="947" y="501" as="sourcePoint" />
              <mxPoint x="946" y="254" as="targetPoint" />
            </mxGeometry>
          </mxCell>
        </UserObject>
        <UserObject label="" tags="Connector" id="124">
          <mxCell style="vsdxID=118;edgeStyle=none;startArrow=none;endArrow=block;startSize=5;endSize=5;strokeColor=#000000;spacingTop=0;spacingBottom=0;spacingLeft=0;spacingRight=0;verticalAlign=middle;html=1;labelBackgroundColor=#ffffff;rounded=0;exitX=0.5046728971962616;exitY=1.0119047619047619;exitDx=0;exitDy=0;exitPerimeter=0;entryX=0.5046728971962616;entryY=0;entryDx=0;entryDy=0;entryPerimeter=0;" parent="1" source="39" target="45" edge="1">
            <mxGeometry relative="1" as="geometry">
              <mxPoint x="12" as="offset" />
              <Array as="points" />
            </mxGeometry>
          </mxCell>
        </UserObject>
        <UserObject label="&lt;div style=&quot;font-size: 1px&quot;&gt;&lt;font style=&quot;font-size:16.93px;font-family:Times New Roman;color:#000000;direction:ltr;letter-spacing:0px;line-height:120%;opacity:1&quot;&gt;uses&lt;br/&gt;&lt;/font&gt;&lt;/div&gt;" tags="Connector" id="125">
          <mxCell style="vsdxID=117;edgeStyle=none;startArrow=none;endArrow=block;startSize=5;endSize=5;strokeColor=#000000;spacingTop=0;spacingBottom=0;spacingLeft=0;spacingRight=0;verticalAlign=middle;html=1;labelBackgroundColor=#FFFFFF;rounded=0;align=center;exitX=1.038;exitY=0.667;exitDx=0;exitDy=0;exitPerimeter=0;entryX=0;entryY=0.5;entryDx=0;entryDy=0;entryPerimeter=0;" parent="1" source="12" target="45" edge="1">
            <mxGeometry relative="1" as="geometry">
              <mxPoint x="-2" y="12" as="offset" />
              <Array as="points" />
            </mxGeometry>
          </mxCell>
        </UserObject>
        <UserObject label="&lt;div style=&quot;font-size: 1px&quot;&gt;&lt;font style=&quot;font-size:16.93px;font-family:Times New Roman;color:#000000;direction:ltr;letter-spacing:0px;line-height:120%;opacity:1&quot;&gt;mashes up&lt;br/&gt;&lt;/font&gt;&lt;/div&gt;" tags="Connector" id="126">
          <mxCell style="vsdxID=94;edgeStyle=none;startArrow=none;endArrow=block;startSize=5;endSize=5;strokeColor=#000000;spacingTop=0;spacingBottom=0;spacingLeft=0;spacingRight=0;verticalAlign=middle;html=1;labelBackgroundColor=#FFFFFF;rounded=0;align=center;exitX=1;exitY=0.9545454545454546;exitDx=0;exitDy=0;exitPerimeter=0;entryX=0;entryY=0.5;entryDx=0;entryDy=0;entryPerimeter=0;" parent="1" target="40" edge="1">
            <mxGeometry relative="1" as="geometry">
              <mxPoint y="14" as="offset" />
              <Array as="points" />
              <mxPoint x="153.99999999999977" y="354" as="sourcePoint" />
            </mxGeometry>
          </mxCell>
        </UserObject>
        <UserObject label="&lt;div style=&quot;&quot;&gt;&lt;font style=&quot;font-family: &amp;quot;Times New Roman&amp;quot;; color: rgb(0, 0, 0); direction: ltr; letter-spacing: 0px; line-height: 120%; opacity: 1;&quot;&gt;&lt;font style=&quot;font-size: 16px;&quot;&gt;develops&lt;/font&gt;&lt;br&gt;&lt;/font&gt;&lt;/div&gt;" tags="Connector" id="127">
          <mxCell style="vsdxID=84;edgeStyle=none;startArrow=none;endArrow=block;startSize=5;endSize=5;strokeColor=#000000;spacingTop=0;spacingBottom=0;spacingLeft=0;spacingRight=0;verticalAlign=middle;html=1;labelBackgroundColor=#ffffff;rounded=0;align=center;exitX=1;exitY=0.6666666666666666;exitDx=0;exitDy=0;exitPerimeter=0;entryX=0;entryY=0.5;entryDx=0;entryDy=0;entryPerimeter=0;" parent="1" source="28" target="23" edge="1">
            <mxGeometry relative="1" as="geometry">
              <mxPoint x="-3" y="14" as="offset" />
              <Array as="points" />
            </mxGeometry>
          </mxCell>
        </UserObject>
        <UserObject label="&lt;div style=&quot;&quot;&gt;&lt;font style=&quot;font-family: &amp;quot;Times New Roman&amp;quot;; color: rgb(0, 0, 0); direction: ltr; letter-spacing: 0px; line-height: 120%; opacity: 1;&quot;&gt;&lt;font style=&quot;font-size: 18px;&quot;&gt;maintains &lt;/font&gt;&lt;br&gt;&lt;/font&gt;&lt;/div&gt;" tags="Connector" id="128">
          <mxCell style="vsdxID=85;edgeStyle=none;startArrow=none;endArrow=block;startSize=5;endSize=5;strokeColor=#000000;spacingTop=0;spacingBottom=0;spacingLeft=0;spacingRight=0;verticalAlign=middle;html=1;labelBackgroundColor=#ffffff;rounded=0;align=center;exitX=1;exitY=0.8636363636363636;exitDx=0;exitDy=0;exitPerimeter=0;entryX=0;entryY=0.5;entryDx=0;entryDy=0;" parent="1" source="60" target="zskuOC4WRxNCFhJy_Tp5-143" edge="1">
            <mxGeometry relative="1" as="geometry">
              <mxPoint x="-5" y="11" as="offset" />
              <Array as="points" />
              <mxPoint x="302" y="222.9999999999999" as="targetPoint" />
            </mxGeometry>
          </mxCell>
        </UserObject>
        <UserObject label="" tags="Connector" id="130">
          <mxCell style="vsdxID=96;edgeStyle=none;startArrow=none;endArrow=block;startSize=5;endSize=5;strokeColor=#000000;spacingTop=0;spacingBottom=0;spacingLeft=0;spacingRight=0;verticalAlign=middle;html=1;labelBackgroundColor=#ffffff;rounded=0;exitX=0.49206349206349204;exitY=1.0158730158730158;exitDx=0;exitDy=0;exitPerimeter=0;entryX=0.5046728971962616;entryY=0;entryDx=0;entryDy=0;entryPerimeter=0;" parent="1" target="40" edge="1">
            <mxGeometry relative="1" as="geometry">
              <mxPoint x="12" y="-1" as="offset" />
              <Array as="points">
                <mxPoint x="333" y="261.7" />
              </Array>
              <mxPoint x="333.0000000000002" y="254.9999999999999" as="sourcePoint" />
            </mxGeometry>
          </mxCell>
        </UserObject>
        <mxCell id="131" parent="1" vertex="1">
          <mxGeometry x="333" y="68" as="geometry" />
        </mxCell>
        <UserObject label="&lt;div style=&quot;font-size: 1px&quot;&gt;&lt;/div&gt;" tags="Connector" id="132">
          <mxCell style="vsdxID=95;edgeStyle=none;startArrow=none;endArrow=block;startSize=5;endSize=5;strokeColor=#000000;spacingTop=0;spacingBottom=0;spacingLeft=0;spacingRight=0;verticalAlign=middle;html=1;labelBackgroundColor=#ffffff;rounded=0;align=center;entryX=0.49206349206349204;entryY=0;entryDx=0;entryDy=0;entryPerimeter=0;" parent="1" edge="1">
            <mxGeometry relative="1" as="geometry">
              <mxPoint x="49" y="-2" as="offset" />
              <Array as="points" />
              <mxPoint x="333" y="100" as="sourcePoint" />
              <mxPoint x="333.0000000000002" y="190.9999999999999" as="targetPoint" />
            </mxGeometry>
          </mxCell>
        </UserObject>
        <UserObject label="" tags="Connector" id="133">
          <mxCell style="vsdxID=92;edgeStyle=none;startArrow=none;endArrow=block;startSize=5;endSize=5;strokeColor=#000000;spacingTop=0;spacingBottom=0;spacingLeft=0;spacingRight=0;verticalAlign=middle;html=1;labelBackgroundColor=#ffffff;rounded=0;exitX=1.0833333333333333;exitY=0.5833333333333334;exitDx=0;exitDy=0;exitPerimeter=0;entryX=0.5833333333333334;entryY=0.08333333333333333;entryDx=0;entryDy=0;entryPerimeter=0;" parent="1" source="41" target="42" edge="1">
            <mxGeometry relative="1" as="geometry">
              <mxPoint x="6" y="-1" as="offset" />
              <Array as="points">
                <mxPoint x="323.7" y="335" />
              </Array>
            </mxGeometry>
          </mxCell>
        </UserObject>
        <UserObject label="" tags="Connector Flowchart Network Web_Site_Map_Shapes" id="142">
          <mxCell parent="1" vertex="1" visible="0">
            <mxGeometry as="geometry" />
          </mxCell>
        </UserObject>
        <mxCell id="zskuOC4WRxNCFhJy_Tp5-143" value="" style="shape=datastore;whiteSpace=wrap;html=1;" vertex="1" parent="1">
          <mxGeometry x="299" y="192.5" width="60" height="60" as="geometry" />
        </mxCell>
        <UserObject label="" tags="Background" id="zskuOC4WRxNCFhJy_Tp5-167">
          <mxCell style="vsdxID=66;fillColor=none;gradientColor=none;strokeColor=none;points=[];labelBackgroundColor=none;rounded=0;html=1;whiteSpace=wrap;" vertex="1" parent="1">
            <mxGeometry x="890" y="430" width="28" height="70" as="geometry" />
          </mxCell>
        </UserObject>
        <mxCell id="zskuOC4WRxNCFhJy_Tp5-168" style="vsdxID=67;fillColor=#000000;gradientColor=none;fillOpacity=0;shape=stencil(vVfbUhs5EP0aP6JSq++PW0n2P1yJAdeymDJkQ/5+z6xnxkgOUPsQigfGklo6fdHpow1/erzdPuw2rT4+HQ9/7X7svz3dbvjzprX9/e3uuH/C14a/bPjT9eG4uzkevt9/O/1+2E4rp6+/D/9MOzyf7LLwZNPqz9NvqUX9v5E/T8vv9vcvlkcxGtd7vlz/9fvxtD/NC4oEi1qL1rjNtstcK+wuQo1UiGqV0/xzO823oq1RVFU2a4vxPClaqDI3Z4CgefKZF8ua8/J5RAKbnYHWP36BlYpl1ARcVhWplXq8ysDLLT0yOVoPlgoHk7unNk/qwaoXpsQwzLlqD5ZKsx6sRokcwPaJqMWsS4RZYXsrERWJiBBPd8Z/eKe9dzZFyEVrTTHN3rtaCLkIo4qge2TvnrcCw0bIsBr33tXeNZdi+k4ermqZ8muCHSsSnLUOleNRJKtHs0qZA1Yp7gGY4W5tqakFaiDaXgVWUS2GRKDgtIeL5f4e3KluhFORWJMxqmElg1oawmdOQ4FzSRVAmc72AWgWEquabYqB9UjZC/VAsyFD7wAVL2Eijm1pgJmCIpyKWnyq3qG2Ub5mxlSzEUePM7UEbILMzVBXPdDJ0gekk8E7SE2nkEZGWjDreBEzS1TCRHCAHJR7uE6o9YprXB1xGQoANANXEYJwbFwrD7fREdoxtlnG27g9fsWC43wbGQfOITvO95G8yJK0eRdU3oJlHkFtLKdfbZ/3j1fHw9P2aX+4767O3fZ4s7vCiVfXd9ubburxx273cDE8M0CPkRD2HmIUjw4hQtPjQ6Too/ChgNb4LAhBxGVN7owJN79vQSCfFh8WRXDows3nXFfJC5zIf3Q4TcqHwXQtdci2gMmoh4gO6h1E1bKS6W/HaOhhQ76Z0YE7jCZjGNkWRv4tGPs2Ox3fCyRA9PbSYKQukA+DJRVNPEWWRjlPMnwmTIDU8N8zfWAuJABEywKFYTYwbdPCklbTvGmbqGtgLisytC+KpS5f51qfuDYbK4mD43vAoG+wAtoD2jEzOlWP16CIItngsUI31bHb1sLoGqEGb6aNrHqPGbJsYc6ffJGOX+JFBgTxUchCklEYvH7gEsQpAxlQMkjA2qzb297yasv5/wMMM506DloL5MgQYCQV3Af1ZGokg5LBJESOWypkZQ6xRS1Ji9AKSoJeW+dXjUAlokeL0KkNaPuCz5XczgKf3xT4WSzw55qiTpRDxcNeICdJAqoLaclB4+ck5FB7UBCQ+EPFT68RBADaCYJFhkZ9frrwefUoLPrXDjre6NzcAl9xDu8d10mI4tqR6YVrnhV3GOvayklttVT4bY56Qr1lXnjmqEJNRfaguHJwDuaX3gUN3uH7/LC73t/dnd6Fqzv4GB+CGDo9IvnLvw==);strokeColor=none;strokeWidth=0;shadow=1;spacingTop=-3;spacingBottom=-3;spacingLeft=-3;spacingRight=-3;points=[];labelBackgroundColor=none;rounded=0;html=1;whiteSpace=wrap;" vertex="1" parent="zskuOC4WRxNCFhJy_Tp5-167">
          <mxGeometry x="0.7368421052631579" y="0.7171396373322406" width="25.789473684210524" height="45.8969367892634" as="geometry" />
        </mxCell>
        <mxCell id="zskuOC4WRxNCFhJy_Tp5-169" style="vsdxID=68;fillColor=#dcf1fa;gradientColor=#5b9bd5;shape=stencil(hZXLUhsxEEW/xktU/X4sU0D+gwomuEIwZSCBv08PM2MjJRXvZiS1dPr2bWnDl8/3N0/bDcHzy2H/Y/t7d/tyv+GrDdHu8X572L3U14avN3x5tz9svx/2r4+38//TzbRy+vq5/zXt8DbHYTOZggje5wGmhvox8nVe/+31MAfgGhFAyUmWwsyZucQv85RNNT1CmRxxnX6jZboRIgUCEJjyErtOcgMxIVRG8iWQ10DHZfUygtqAT6jw5R+0UhuSW4i424nm/VMyAgbgqgSZ7D0tWiOzShizkKOnvdCGRkmkEBkAC8yRWKEdE+QVB88AazaMUqa0QXUagaNZqEDBmAudjlx5QZpZpSQuGMWEg8DQwgU0tQpdpUrrkdMaS4/sBUQD9MPu8bOHADoLZbaQ/1koqVlqCE/Si/1VFIAmbI6KkRaOQ5JRupNHega5Z59hHW5OWMW08qYm9Qm6NI8+weSGeaYqH2FctnYSYu15pw0i2DAZkEV6WqMGziGJieA+0JZFqoxR9qqWUe1hJRoOng8vQ5+BZawTEUUqfTmWczVQ4YSJsjtDxtCcUZEigaV6oPSsHk2RLRLKnKuxVtSpUQZdrWwQZ1ArChQ41KIcUS00SFt7QEmrJa2xDM15AXUmuqOnVD+IZg7ymrTa1MM0qoOPV9UKDQ0GebUU9zPMdSpM+riaAEYdQD201r2EVVIg14wBGurCZYryA9cdScOVUhUHrdpVk1N1bxl4JF73O94o0mRUeWjPs1d8fZzeh7vdw8P8vHyeH9+TGprfIr7+Aw==);strokeColor=none;strokeWidth=0;spacingTop=-3;spacingBottom=-3;spacingLeft=-3;spacingRight=-3;points=[];labelBackgroundColor=none;rounded=0;html=1;whiteSpace=wrap;" vertex="1" parent="zskuOC4WRxNCFhJy_Tp5-167">
          <mxGeometry x="0.7368421052631579" y="17.928490933306016" width="19.894736842105264" height="27.968445855957388" as="geometry" />
        </mxCell>
        <mxCell id="zskuOC4WRxNCFhJy_Tp5-170" style="vsdxID=69;fillColor=#f7f3e8;gradientColor=#a8dbf0;gradientDirection=east;shape=stencil(rVJJEoMgEHwNRykE17Mx/6AiKhUi1kii+X0waAXNcsptprtnaRjEiqHlvUCUDAb0WYyyMi1iB0Sp7FoB0tgIsRKxotYgGtDXrnJ5z2flHF30be4wubqUYJLNVZTcHRIS8syPTq5k58lXchWnMU5yX87hZFnwuseuANb2IcXxgi0qmuB8uwPBcbRIAj7JIQBtuJG6W2jHKQ6NCOzEoFa82VDDKET/Bn+0tDVEI5z9MJRkOGN7QwQnGz/f3/RfdkJ/Qxu8freWSrnj8Pn9NVjIXRIrHw==);strokeColor=none;strokeWidth=0;spacingTop=-3;spacingBottom=-3;spacingLeft=-3;spacingRight=-3;points=[];labelBackgroundColor=none;rounded=0;html=1;whiteSpace=wrap;" vertex="1" parent="zskuOC4WRxNCFhJy_Tp5-167">
          <mxGeometry x="2.9473684210526314" y="15.059932383977054" width="22.105263157894736" height="13.625653109312571" as="geometry" />
        </mxCell>
        <mxCell id="zskuOC4WRxNCFhJy_Tp5-171" style="vsdxID=70;fillColor=#a8dbf0;gradientColor=#5b9bd5;shape=stencil(vZTBbsMgDIafhmMsMIHAueveA60kQctCRdK1e/uREW11Jk27NDdj/4ZP5peZPEy9O3uGfJpTfPXXcJp7Jp8YYhh7n8KcIyaPTB7amHyX4mU8lfPZLcoleovvyw230seXDuQf5SQaUOIr81zELr3kalrF2oA2pSGtHaihliW1ikwNaOmtIFZF5W5hqlKc3RziSAgGlzpf5feqdnAdKU1X78936T8IsZZgNog2pxRBtAIaiogcrNoLUtVcAerNIHljwVrKWYMRhFM2YHC3YWrFQUvKKbj4xSk4tVFjAHejVAJqtWG0YAhgkzWGIGZTfPv24YiLAzffLTUIpENEUBTRPtSTQxj/vwdy8LNB2jAMZQHd17cbJ6fKtpLHTw==);strokeColor=none;strokeWidth=0;spacingTop=-3;spacingBottom=-3;spacingLeft=-3;spacingRight=-3;points=[];labelBackgroundColor=none;rounded=0;html=1;whiteSpace=wrap;" vertex="1" parent="zskuOC4WRxNCFhJy_Tp5-167">
          <mxGeometry x="19.157894736842106" y="25.09988730662842" width="7.368421052631579" height="20.079909845302733" as="geometry" />
        </mxCell>
        <mxCell id="zskuOC4WRxNCFhJy_Tp5-172" style="vsdxID=71;fillColor=#5b9bd5;gradientColor=#4974ba;gradientDirection=east;shape=stencil(fVLZTsNADPyavK587eFHVMp/VDQlEaWp0hbK37PbDaQOiCgPPma8M5YbXp26zbFtCE7ncXhtP/rtuWv4sSHqD1079uccNbxueLUbxvZlHC6Hbc2Pm4Is0dvwXiZcK4+cSCERfNYCiitp/p8qft8fDD5ZvPcODf75MtYHcGaIeiBkjgiqaeLj3QBkRIlesPauVHswQac0RkdMMYWUPEmEbzTXtohLOjGmkqLDMKuDhz8E3mjMKBzCL3W3ARC8jxwjeLL6lF2WkVgpACNbtQjg4O6LVm1uW63FHS202uWrOh/N9uG/zRd4CCgelCSgNQbWSchLiApJA3pltE5yM978i2ICWWzdQbBGkNxy5zmeL3DX7/f1gH+k52B5sblUr53XXw==);strokeColor=none;strokeWidth=0;spacingTop=-3;spacingBottom=-3;spacingLeft=-3;spacingRight=-3;points=[];labelBackgroundColor=none;rounded=0;html=1;whiteSpace=wrap;" vertex="1" parent="zskuOC4WRxNCFhJy_Tp5-167">
          <mxGeometry x="9.578947368421053" y="15.059932383977054" width="8.105263157894736" height="4.3028378239934435" as="geometry" />
        </mxCell>
        <mxCell id="zskuOC4WRxNCFhJy_Tp5-173" style="vsdxID=72;fillColor=#FFFFFF;gradientColor=#da8c36;shape=stencil(lZPBbsIwDIafpsdFju3E8XFi7D3QKKMao6iUjb39WpIyUpWi9VDF8e/6s2sXtDhuV4eyQDi2Tf1RflfrdlvQS4FY7bdlU7XdqaBlQYtN3ZTvTX3ar6N9WPXK/vRZf/VfOMc4C9DHIPxE24FButy8RvnbqYl6GwUajBMPwiGwSopNvgBGUawEJWH10XnG6BRvBJwjAXaBWTXF4hXEwM2DKZoGriSnnPtCCc8ToEgGldmjOrZMOem9bAkGDENw5LwVdRQQgHPa6UoT2wh11NJJ2PsJh2rAeCJxoGht99YceLrYazVBRQC7OPZeVcJ8bx919t6ftA/S4cwE4XyZNJ7Wmd7uqv1/Bjzfhyd0mXywk7g7/G3Sptrt4iLe+seb113FraXlLw==);strokeColor=#996633;strokeWidth=0;spacingTop=-3;spacingBottom=-3;spacingLeft=-3;spacingRight=-3;points=[];labelBackgroundColor=none;rounded=0;html=1;whiteSpace=wrap;" vertex="1" parent="zskuOC4WRxNCFhJy_Tp5-167">
          <mxGeometry x="5.894736842105263" width="14.736842105263158" height="16.494211658641536" as="geometry" />
        </mxCell>
        <mxCell id="zskuOC4WRxNCFhJy_Tp5-174" style="vsdxID=73;fillColor=none;gradientColor=none;shape=stencil(nZFLDoMwDERP4y0KtoTYU3oPJEJjNU1QSH+3b4KFCqhdtLsZ53lkTYCayXSjBlRTDP6s79xHA3QARHZGB45JAbVAzeCDPgV/db34sctkVhd/ywkP2VN5A9VTXFUWFc6To8CW3VdYrcGfUrdwqbb44j+esIepLqj+OzuJdzEDWyu9rt/3RaaRfAK1Lw==);strokeColor=#1e4182;strokeWidth=0;spacingTop=-3;spacingBottom=-3;spacingLeft=-3;spacingRight=-3;points=[];labelBackgroundColor=none;rounded=0;html=1;whiteSpace=wrap;movable=0;resizable=0;rotatable=0;deletable=0;editable=0;locked=1;connectable=0;" vertex="1" parent="zskuOC4WRxNCFhJy_Tp5-167">
          <mxGeometry x="6" y="37" width="16" height="23" as="geometry" />
        </mxCell>
        <mxCell id="zskuOC4WRxNCFhJy_Tp5-175" value="&lt;div style=&quot;font-size: 1px&quot;&gt;&lt;font style=&quot;font-size:16.93px;font-family:Times New Roman;color:#000000;direction:ltr;letter-spacing:0px;line-height:120%;opacity:1&quot;&gt;DE&lt;br&gt;&lt;/font&gt;&lt;/div&gt;" style="text;vsdxID=66;fillColor=none;gradientColor=none;strokeColor=none;points=[];labelBackgroundColor=none;rounded=0;html=1;whiteSpace=wrap;verticalAlign=middle;align=center;overflow=width;;html=1;" vertex="1" parent="zskuOC4WRxNCFhJy_Tp5-167">
          <mxGeometry x="-1.5473684210526326" y="45.17979715193116" width="28.073684210526316" height="26.971621760065567" as="geometry" />
        </mxCell>
        <UserObject label="" tags="Connector" id="zskuOC4WRxNCFhJy_Tp5-176">
          <mxCell style="vsdxID=180;edgeStyle=none;dashed=1;startArrow=none;endArrow=none;startSize=5;endSize=5;strokeColor=#000000;spacingTop=0;spacingBottom=0;spacingLeft=0;spacingRight=0;verticalAlign=middle;html=1;labelBackgroundColor=#ffffff;rounded=1;" edge="1" parent="1">
            <mxGeometry relative="1" as="geometry">
              <mxPoint x="-13" as="offset" />
              <Array as="points" />
              <mxPoint x="772" y="503" as="sourcePoint" />
              <mxPoint x="770" y="255" as="targetPoint" />
            </mxGeometry>
          </mxCell>
        </UserObject>
      </root>
    </mxGraphModel>
  </diagram>
</mxfile>
